<svg fill="#8C8880" version="1.1" id="Layer_2_1_" xmlns:x="ns_extend;" xmlns:i="ns_ai;" xmlns:graph="ns_graphs;" xmlns="http://www.w3.org/2000/svg" xmlns:xlink="http://www.w3.org/1999/xlink" x="0px" y="0px" viewBox="0 0 772.2 242" style="enable-background:new 0 0 772.2 242;" xml:space="preserve">
<g>
<path class="st0" d="M641.9,70.8c11.5,0,24.5,9.9,24.6,23.5c0,7.7-2.5,13.6-6.1,19c-2.4,3.5-4.2,7.5-4.9,10.4c-0.8,3.3-2.5,11.1,7.2,11.3c6.3,0.1,21.8-5.3,34.4-20.4c9.6-12.1,15.4-27.4,15.4-44c0-39-31.6-70.6-70.6-70.6l0,0c-39,0-70.6,31.6-70.6,70.6c0,16.7,5.7,32,15.4,44c12.5,15,28.1,20.5,34.4,20.4c9.7-0.2,8-8,7.2-11.3c-0.7-2.9-2.5-6.8-4.8-10.4c-3.6-5.4-6.1-11.3-6.1-19C617.4,80.7,630.4,70.8,641.9,70.8L641.9,70.8z M766.7,142.1c-2.9-2.4-8-5.9-18.4-7.4c-14.4-2.2-27.3,1.2-35.1,4.3c-10.2,4-22.8,13.1-31.5,25c-9.1,12.5-13.9,31.5-9.4,51.2c1.3,5.6,2.7,8.7,4.7,12.6c2.8,5.3,9.9,12.7,16.2,14c5,1,8.8-1.8,10.7-4c12.6-14.5,60.5-70.7,65.6-77.9C774.7,152.8,771.4,146,766.7,142.1z M570.6,139c-7.8-3.1-20.7-6.5-35.1-4.3c-10.4,1.6-15.5,5.1-18.4,7.4c-4.7,3.9-8,10.7-2.9,17.8c5.2,7.2,53,63.4,65.6,77.9c1.8,2.1,5.7,5,10.7,4c6.3-1.3,13.4-8.7,16.2-14c2-3.9,3.4-7,4.7-12.6c4.6-19.7-0.2-38.7-9.4-51.2C593.4,152.1,580.8,143,570.6,139z"></path>
<g>
<path class="st0" d="M363.1,115.7h56.2c0,0-11.6,15.1-24.2,31.6h65.5c11.7-15.2,22.3-29.1,23.9-31.2c7.4-9.6,9.1-18.3,9.1-25.9V79.3c0-5.5-3.4-8.6-8.6-8.6H363.2c-5,0-8.4,2.7-8.4,8.4v28.1C354.7,112.9,358,115.7,363.1,115.7z"></path>
<path class="st0" d="M1.3,225c-1.5,2.6-1.5,5.3-0.6,7.1c1.1,2.1,3.5,3.2,6.1,3.2h39.9c5.1,0,9.5-2.7,12.1-6.7l44-69.8H43.1C22.4,191.4,1.7,224.2,1.3,225z"></path>
<path class="st0" d="M165.2,158.8h-55.8c1.4,7.7,11.7,65.3,12.3,68.7c0.9,5.2,4.2,7.8,9,7.8h38.4c3.5,0,5.3-1.1,6.9-3.1c1.1-1.4,1.6-3.5,1.1-6.6L165.2,158.8z"></path>
<path class="st0" d="M337.2,79.2c0-5.6-3.4-8.4-8.4-8.4h-34c-5,0-8.4,2.7-8.4,8.4V143l-32.2-57.4C247.8,75,237,71.1,224.4,70.8h-25.1c-5,0-8.4,2.7-8.4,8.4v68.2H233l6.4,11.4H191v68.1c0,5.6,3.4,8.4,8.4,8.4h34c5,0,8.4-2.7,8.4-8.4v-64.2l32.4,57.8c6.3,10.5,17.2,14.5,29.8,14.8h24.9c5,0,8.4-2.7,8.4-8.4v-68.1h-41.9l-6.4-11.4h48.3L337.2,79.2z"></path>
<path class="st0" d="M151,78.7c-1-5.4-4.5-7.9-9.3-7.9H125c-17.4,0-32.6,9.1-41.2,22.9c0,0-15.9,25.3-33.7,53.7h113.1L151,78.7z"></path>
<path class="st0" d="M486.5,190.4h-59c0,0,11.5-15,24.2-31.6h-65.5c-11.9,15.6-22.7,29.6-23.3,30.4c-8.7,12.1-9.6,24.3-9.6,32.8c0,1.8,0,4.8,0,4.8c0,5.5,3.4,8.6,8.6,8.6h124.6c5,0,8.4-2.7,8.4-8.4v-28.1C494.9,193.1,491.5,190.4,486.5,190.4z"></path>
</g>
</g>
</svg>
