<svg xmlns="http://www.w3.org/2000/svg" viewBox="0 0 256 256">
<g>
<path d="M 256.00 0.00 L 256.00 256.00 L 255.84 138.50 L 254.03 148.50 C252.53,156.79 247.61,174.61 246.47,175.83 C246.31,176.02 245.14,175.14 243.90,173.90 C242.58,172.58 241.47,172.09 241.25,172.74 C240.89,173.84 234.13,171.66 233.00,170.07 C232.16,168.88 224.27,166.07 223.61,166.73 C223.27,167.07 223.91,164.68 225.04,161.42 C233.65,136.61 232.20,109.40 220.98,85.27 C209.64,60.89 187.98,40.92 163.66,32.41 C154.80,29.31 154.51,29.12 154.82,26.35 C155.12,23.63 159.87,5.80 160.45,5.22 C161.12,4.54 178.17,10.57 184.50,13.73 C222.76,32.80 248.66,68.80 254.89,111.52 C255.44,115.36 255.80,96.50 255.88,58.75 L 256.00 0.00 ZM 187.68 156.66 C187.38,156.73 187.09,156.79 186.81,156.85 C183.81,157.48 182.30,157.79 180.79,157.79 C179.14,157.79 177.49,157.40 173.85,156.62 C159.70,153.57 152.00,143.16 152.00,127.05 C152.00,117.76 153.93,111.61 158.53,106.24 C167.37,95.90 187.07,93.99 198.78,102.33 C207.49,108.54 211.84,123.27 208.64,135.75 C205.62,147.56 198.83,154.33 187.68,156.66 ZM 76.53 155.55 C68.01,159.11 57.07,156.19 52.28,149.09 C49.13,144.41 49.13,136.58 52.29,131.90 C56.24,126.03 62.02,123.62 73.25,123.16 L 83.00 122.77 L 83.00 118.82 C83.00,112.86 81.60,111.00 77.12,111.00 C73.03,111.00 70.00,113.32 70.00,116.44 C70.00,118.31 69.61,118.31 56.75,116.39 C52.32,115.72 51.95,113.98 54.98,108.04 C58.52,101.09 67.05,97.00 77.98,97.00 C89.14,97.00 97.24,101.17 99.94,108.32 C100.52,109.86 101.00,117.15 101.00,124.50 C101.00,139.67 101.78,143.00 105.36,143.00 C108.04,143.00 108.96,145.09 108.99,151.15 C109.00,154.35 108.61,154.94 105.85,155.90 C98.77,158.37 88.58,155.82 85.96,150.93 C84.87,148.89 84.83,148.89 82.43,151.48 C81.09,152.92 78.44,154.75 76.53,155.55 ZM 146.36 154.79 C137.21,159.40 124.61,157.75 118.65,151.17 C115.06,147.19 114.09,142.07 114.04,126.75 L 114.00 112.00 L 107.00 112.00 L 107.00 98.00 L 114.00 98.00 L 114.00 86.26 L 119.25 85.61 C122.14,85.25 126.39,84.69 128.70,84.37 L 132.91 83.79 L 133.50 98.50 L 148.00 99.09 L 148.00 112.00 L 133.00 112.00 L 133.00 125.35 C133.00,137.00 133.23,138.90 134.83,140.35 C136.92,142.24 142.16,142.52 145.17,140.91 C147.95,139.42 148.71,140.53 149.52,147.18 L 150.21 152.85 ZM 37.19 82.58 C33.18,90.59 32.23,91.38 28.45,89.90 C27.38,89.48 25.48,89.11 24.24,89.07 C23.00,89.03 19.95,88.05 17.48,86.89 C15.01,85.72 12.09,85.01 10.99,85.29 C8.39,85.97 8.45,85.50 12.02,77.12 C16.76,65.97 26.06,51.00 28.24,51.00 C28.86,51.00 33.55,54.18 38.64,58.06 L 47.91 65.12 L 44.57 69.81 C42.73,72.39 39.41,78.14 37.19,82.58 ZM 176.76 142.43 C178.39,143.32 179.20,143.77 180.04,143.85 C180.91,143.93 181.81,143.61 183.68,142.96 L 183.88 142.89 C187.96,141.47 190.13,137.25 190.74,129.55 C191.65,118.12 188.08,111.00 181.43,111.00 C173.67,111.00 171.00,115.09 171.00,127.00 C171.00,136.14 172.48,140.11 176.76,142.43 ZM 72.00 144.31 C77.96,146.44 83.00,142.13 83.00,134.91 L 83.00 131.72 L 77.40 132.30 C71.27,132.93 68.00,135.08 68.00,138.46 C68.00,140.91 69.78,143.51 72.00,144.31 ZM 33.00 92.56 C33.00,92.80 32.55,93.00 32.00,93.00 C31.45,93.00 31.00,92.52 31.00,91.94 C31.00,91.36 31.45,91.16 32.00,91.50 C32.55,91.84 33.00,92.32 33.00,92.56 Z" fill="#706D66"></path>
<path d="M 27.00 139.52 C27.69,144.39 27.85,148.55 27.37,149.03 C26.88,149.52 23.43,148.81 19.50,147.42 C15.65,146.05 10.17,144.18 7.32,143.26 L 2.14 141.58 L 1.47 133.45 C0.68,123.95 2.27,107.16 4.97,96.60 C5.93,92.87 7.71,87.76 9.79,82.56 C8.64,85.68 9.14,85.78 10.99,85.29 C12.09,85.01 15.01,85.72 17.48,86.89 C19.95,88.05 23.00,89.03 24.24,89.07 C25.48,89.11 27.38,89.48 28.45,89.90 C31.71,91.18 32.87,90.77 35.69,85.50 C34.69,87.73 33.76,90.01 32.91,92.33 C32.76,92.08 32.41,91.75 32.00,91.50 C31.45,91.16 31.00,91.36 31.00,91.94 C31.00,92.52 31.45,93.00 32.00,93.00 C32.28,93.00 32.54,92.95 32.72,92.86 C27.20,108.17 24.95,125.07 27.00,139.52 ZM 246.18 175.78 C242.85,183.99 238.72,191.77 233.81,199.09 C228.41,207.15 220.01,217.00 218.54,217.00 C217.94,217.00 213.69,213.21 209.08,208.58 L 200.71 200.16 L 205.23 194.83 C214.80,183.54 222.67,169.36 226.65,156.38 C226.16,158.07 225.62,159.75 225.04,161.42 C223.91,164.68 223.27,167.07 223.61,166.73 C224.27,166.07 232.16,168.88 233.00,170.07 C234.13,171.66 240.89,173.84 241.25,172.74 C241.47,172.09 242.58,172.58 243.90,173.90 C244.83,174.83 245.72,175.56 246.18,175.78 ZM 220.98 85.27 C227.36,98.99 230.58,113.71 230.59,128.41 C230.52,113.70 227.26,98.79 220.98,85.27 ZM 250.48 163.48 C251.92,158.17 253.34,152.32 254.03,148.50 C253.10,153.62 251.92,158.62 250.48,163.48 ZM 14.34 72.06 C15.66,69.28 16.96,66.77 18.12,64.80 C18.71,63.79 19.29,62.83 19.85,61.91 C17.97,65.08 16.04,68.62 14.34,72.06 ZM 44.43 70.00 C44.48,69.93 44.53,69.87 44.57,69.81 L 47.91 65.12 L 44.57 69.81 C44.53,69.87 44.48,69.94 44.43,70.00 Z" fill="#8C8880"></path>
<path d="M 27.00 139.52 C26.05,132.78 26.02,125.51 26.83,118.11 C24.67,141.39 30.54,165.45 43.72,184.72 C43.80,184.83 43.87,184.94 43.95,185.05 C45.56,187.41 46.51,188.79 46.39,190.07 C46.21,191.97 43.70,193.65 37.54,197.91 C33.49,200.71 29.78,203.00 29.31,203.00 C25.47,203.00 14.82,186.91 9.43,172.97 C5.00,161.48 2.92,153.03 2.13,141.39 L 2.14 141.58 L 7.32 143.26 C10.17,144.18 15.65,146.05 19.50,147.42 C23.43,148.81 26.88,149.52 27.37,149.03 C27.85,148.55 27.69,144.39 27.00,139.52 ZM 175.50 245.72 C171.10,247.38 166.08,249.00 164.35,249.32 C160.65,250.01 160.35,249.49 156.57,235.69 C154.36,227.63 154.30,226.83 155.83,226.30 C165.40,222.96 173.68,219.34 179.42,215.98 C183.22,213.76 186.64,212.29 187.02,212.72 C187.39,213.15 190.53,217.69 194.00,222.82 C200.17,231.93 200.27,232.17 198.41,233.94 C195.54,236.65 184.51,242.33 175.50,245.72 ZM 2.47 110.38 C3.84,97.28 7.30,86.80 14.51,71.58 C15.09,70.34 15.81,68.97 16.60,67.53 C15.87,68.91 15.11,70.44 14.34,72.06 C13.50,73.79 12.71,75.50 12.02,77.12 C10.99,79.54 10.25,81.30 9.79,82.56 C7.71,87.76 5.93,92.87 4.97,96.60 C3.96,100.56 3.11,105.39 2.47,110.38 ZM 37.19 82.58 C37.85,81.25 38.62,79.80 39.41,78.36 C37.53,81.84 35.66,85.67 34.13,89.17 C34.63,87.94 35.15,86.71 35.69,85.50 C36.14,84.66 36.63,83.69 37.19,82.58 ZM 27.94 51.07 C28.03,51.02 28.11,51.00 28.17,51.00 C28.18,51.00 28.19,51.00 28.20,51.00 C28.12,51.01 28.03,51.03 27.94,51.07 ZM 44.43 70.00 C44.48,69.94 44.53,69.87 44.57,69.81 C44.50,69.90 44.44,70.00 44.37,70.10 C44.39,70.06 44.41,70.03 44.43,70.00 Z" fill="#A8A49C"></path>
<path d="M 0.00 128.00 L 0.00 0.00 L 128.00 0.00 L 256.00 0.00 L 255.88 58.75 C255.80,96.50 255.44,115.36 254.89,111.52 C248.66,68.80 222.76,32.80 184.50,13.73 C178.17,10.57 161.12,4.54 160.45,5.22 C159.87,5.80 155.12,23.63 154.82,26.35 C154.51,29.12 154.80,29.31 163.66,32.41 C187.98,40.92 209.64,60.89 220.98,85.27 C230.89,106.59 233.27,131.39 227.50,153.37 C223.89,167.14 215.55,182.66 205.23,194.83 L 200.71 200.16 L 209.08 208.58 C213.69,213.21 217.94,217.00 218.54,217.00 C220.01,217.00 228.41,207.15 233.81,199.09 C243.89,184.06 250.67,167.10 254.03,148.50 L 255.84 138.50 L 255.92 197.25 L 256.00 256.00 L 128.00 256.00 L 0.00 256.00 L 0.00 128.00 ZM 175.50 245.72 C184.51,242.33 195.54,236.65 198.41,233.94 C200.27,232.17 200.17,231.93 194.00,222.82 C190.53,217.69 187.39,213.15 187.02,212.72 C186.64,212.29 183.22,213.76 179.42,215.98 C173.68,219.34 165.40,222.96 155.83,226.30 C154.30,226.83 154.36,227.63 156.57,235.69 C160.35,249.49 160.65,250.01 164.35,249.32 C166.08,249.00 171.10,247.38 175.50,245.72 ZM 37.54 197.91 C48.06,190.64 47.94,190.89 43.72,184.72 C26.09,158.93 21.53,124.59 31.81,95.00 C34.39,87.58 40.49,75.54 44.57,69.81 L 47.91 65.12 L 38.64 58.06 C33.55,54.18 28.83,51.00 28.17,51.00 C26.72,51.00 18.11,63.96 14.51,71.58 C4.32,93.10 1.62,105.13 1.72,128.50 C1.80,147.74 3.52,157.67 9.43,172.97 C14.82,186.91 25.47,203.00 29.31,203.00 C29.78,203.00 33.49,200.71 37.54,197.91 ZM 146.36 154.79 L 150.21 152.85 L 149.52 147.18 C148.71,140.53 147.95,139.42 145.17,140.91 C142.16,142.52 136.92,142.24 134.83,140.35 C133.23,138.90 133.00,137.00 133.00,125.35 L 133.00 112.00 L 140.50 112.00 L 148.00 112.00 L 148.00 105.54 L 148.00 99.09 L 140.75 98.79 L 133.50 98.50 L 133.20 91.14 L 132.91 83.79 L 128.70 84.37 C126.39,84.69 122.14,85.25 119.25,85.61 L 114.00 86.26 L 114.00 92.13 L 114.00 98.00 L 110.50 98.00 L 107.00 98.00 L 107.00 105.00 L 107.00 112.00 L 110.50 112.00 L 114.00 112.00 L 114.04 126.75 C114.09,142.07 115.06,147.19 118.65,151.17 C124.61,157.75 137.21,159.40 146.36,154.79 ZM 187.68 156.66 C198.83,154.33 205.62,147.56 208.64,135.75 C211.84,123.27 207.49,108.54 198.78,102.33 C187.07,93.99 167.37,95.90 158.53,106.24 C153.93,111.61 152.00,117.76 152.00,127.05 C152.00,143.16 159.70,153.57 173.85,156.62 C181.10,158.18 180.47,158.17 187.68,156.66 ZM 76.53 155.55 C78.44,154.75 81.09,152.92 82.43,151.48 C84.83,148.89 84.87,148.89 85.96,150.93 C88.58,155.82 98.77,158.37 105.85,155.90 C108.61,154.94 109.00,154.35 108.99,151.15 C108.96,145.09 108.04,143.00 105.36,143.00 C101.78,143.00 101.00,139.67 101.00,124.50 C101.00,117.15 100.52,109.86 99.94,108.32 C97.24,101.17 89.14,97.00 77.98,97.00 C67.05,97.00 58.52,101.09 54.98,108.04 C51.95,113.98 52.32,115.72 56.75,116.39 C69.61,118.31 70.00,118.31 70.00,116.44 C70.00,113.32 73.03,111.00 77.12,111.00 C81.60,111.00 83.00,112.86 83.00,118.82 L 83.00 122.77 L 73.25 123.16 C62.02,123.62 56.24,126.03 52.29,131.90 C49.13,136.58 49.13,144.41 52.28,149.09 C57.07,156.19 68.01,159.11 76.53,155.55 ZM 176.76 142.43 C172.48,140.11 171.00,136.14 171.00,127.00 C171.00,115.09 173.67,111.00 181.43,111.00 C188.08,111.00 191.65,118.12 190.74,129.55 C190.13,137.25 187.96,141.47 183.88,142.89 C179.99,144.25 180.12,144.26 176.76,142.43 ZM 72.00 144.31 C69.78,143.51 68.00,140.91 68.00,138.46 C68.00,135.08 71.27,132.93 77.40,132.30 L 83.00 131.72 L 83.00 134.91 C83.00,142.13 77.96,146.44 72.00,144.31 Z" fill="#F7F4EE"></path>
</g>
</svg>