<svg xmlns="http://www.w3.org/2000/svg" viewBox="64 84 728 216">
<g>
<path d="M 188.99 250.60 C176.30,278.04 165.57,300.83 165.15,301.25 C164.72,301.68 154.02,279.63 141.36,252.26 L 118.35 202.50 L 127.31 201.50 L 135.23 184.50 C139.58,175.15 144.67,164.22 146.53,160.21 L 149.91 152.92 L 142.30 153.21 L 134.69 153.50 L 129.28 165.50 C126.30,172.10 123.52,177.85 123.10,178.28 C122.68,178.72 119.67,173.21 116.42,166.04 L 110.50 153.01 L 102.95 153.00 L 95.39 153.00 L 80.25 120.25 C71.92,102.24 64.81,86.71 64.45,85.75 C63.82,84.09 69.02,84.00 165.00,84.00 C245.59,84.00 266.10,84.25 265.67,85.25 C265.38,85.94 258.36,101.07 250.08,118.87 C241.80,136.67 235.27,151.63 235.57,152.12 C235.87,152.60 243.07,153.00 251.56,153.00 L 267.00 153.00 L 267.00 165.00 L 254.00 165.00 L 254.00 202.00 L 240.00 202.00 L 240.00 165.00 L 234.07 165.00 C229.02,165.00 228.04,165.30 227.50,166.99 C227.15,168.09 224.88,173.25 222.44,178.46 L 218.01 187.94 L 210.90 183.74 L 208.66 185.85 C207.42,187.01 205.00,188.45 203.27,189.06 C198.99,190.55 191.80,187.44 189.57,183.14 C183.48,171.36 196.40,160.03 207.40,167.50 C209.43,168.88 211.28,170.00 211.50,170.00 C212.79,170.00 221.00,164.34 221.00,163.45 C221.00,161.91 215.06,156.52 211.00,154.38 C208.52,153.07 205.32,152.53 200.00,152.52 C193.45,152.50 191.80,152.89 187.00,155.59 C170.77,164.72 169.96,187.50 185.51,197.80 C192.17,202.21 199.55,203.57 206.22,201.62 C209.08,200.78 211.57,200.24 211.74,200.41 C211.92,200.59 201.68,223.17 188.99,250.60 ZM 308.51 200.65 C302.15,203.61 292.39,203.81 286.43,201.11 C265.89,191.78 264.43,164.64 283.94,154.75 C288.39,152.49 290.67,152.00 296.71,152.00 C308.38,152.00 315.45,155.91 320.48,165.13 C322.88,169.54 323.40,171.66 323.37,177.00 C323.35,180.57 322.64,185.11 321.79,187.07 C319.42,192.57 314.03,198.08 308.51,200.65 ZM 344.00 189.00 L 344.00 202.00 L 330.00 202.00 L 330.00 153.00 L 344.75 153.02 C358.16,153.03 359.86,153.24 363.42,155.27 C367.99,157.86 372.00,164.61 372.00,169.69 C372.00,174.01 369.59,179.78 366.38,183.13 L 363.86 185.76 L 367.94 193.88 L 372.02 202.00 L 356.22 202.00 L 353.39 195.50 C350.73,189.40 350.35,189.00 347.28,189.00 ZM 414.59 199.50 C413.99,201.89 413.63,202.00 406.40,202.00 C402.24,202.00 398.98,201.61 399.17,201.13 C399.35,200.65 404.43,189.63 410.46,176.63 C421.26,153.33 421.46,153.00 424.46,153.03 C424.61,153.03 424.75,153.02 424.88,153.02 C425.17,153.02 425.42,153.01 425.67,153.05 C427.86,153.40 429.49,157.22 446.64,194.75 L 449.95 202.00 L 442.64 202.00 C435.80,202.00 435.25,201.83 434.18,199.50 C433.09,197.11 432.67,197.00 424.13,197.00 C415.46,197.00 415.20,197.07 414.59,199.50 ZM 394.00 153.00 L 394.00 202.00 L 380.00 202.00 L 380.00 153.00 ZM 154.71 201.38 C155.10,201.77 158.14,201.95 161.46,201.79 L 167.50 201.50 L 168.04 153.00 L 154.00 153.00 L 154.00 176.83 C154.00,189.94 154.32,200.99 154.71,201.38 ZM 292.42 188.58 C296.38,190.30 297.34,190.30 301.51,188.56 C307.97,185.86 310.83,177.44 307.48,170.97 C304.66,165.51 296.96,163.42 291.01,166.49 C286.79,168.68 285.00,171.83 285.00,177.09 C285.00,182.47 287.58,186.48 292.42,188.58 ZM 788.63 238.23 C785.00,241.17 772.20,239.79 773.32,236.58 C773.71,235.48 775.19,235.47 780.51,236.55 C784.04,237.26 789.00,234.03 789.00,231.01 C789.00,229.41 788.64,229.31 786.19,230.23 C782.15,231.76 776.46,230.40 774.04,227.33 C772.62,225.51 772.00,223.25 772.00,219.82 C772.00,213.00 774.98,210.00 781.75,210.00 C784.42,210.00 787.14,210.54 787.80,211.20 C788.73,212.13 789.00,212.13 789.00,211.20 C789.00,210.54 789.90,210.00 791.00,210.00 C792.88,210.00 793.00,210.67 793.00,221.07 C793.00,232.51 792.30,235.26 788.63,238.23 ZM 611.23 230.56 C607.92,232.29 607.35,232.29 603.38,230.56 C598.97,228.65 597.00,225.35 597.00,219.91 C597.00,216.23 597.55,214.73 599.64,212.64 C602.70,209.58 605.51,209.04 611.50,210.38 L 614.50 211.05 L 614.16 205.03 C613.85,199.47 613.99,199.00 615.91,199.00 C617.94,199.00 618.00,199.44 618.00,215.00 C618.00,228.26 617.75,231.00 616.56,231.00 C615.77,231.00 614.86,230.58 614.54,230.07 C614.21,229.53 612.82,229.73 611.23,230.56 ZM 589.96 182.31 C586.83,184.51 584.23,184.44 580.31,182.05 C576.27,179.58 575.00,177.18 575.00,171.99 C575.00,168.70 575.63,167.21 578.06,164.79 C580.95,161.90 581.44,161.76 587.06,162.27 L 593.00 162.81 L 593.00 156.91 C593.00,152.32 593.34,151.00 594.50,151.00 C595.77,151.00 596.00,153.44 596.00,167.00 C596.00,180.14 595.75,183.00 594.58,183.00 C593.80,183.00 592.99,182.47 592.77,181.81 C592.49,180.97 591.67,181.11 589.96,182.31 ZM 666.75 182.88 C664.96,182.82 661.92,183.07 660.00,183.44 C657.18,183.98 655.78,183.62 652.79,181.55 C646.98,177.53 646.36,169.55 651.48,164.43 C653.65,162.26 654.64,162.05 661.94,162.20 L 670.00 162.38 L 670.00 183.00 ZM 560.42 230.46 C556.80,232.35 556.29,232.34 552.20,230.33 C545.54,227.05 543.84,218.01 548.92,212.92 C551.71,210.14 552.24,210.00 559.92,210.15 L 568.00 210.30 L 568.00 220.18 C568.00,228.32 567.72,230.17 566.40,230.68 C565.52,231.01 564.47,230.76 564.07,230.12 C563.53,229.24 562.60,229.33 560.42,230.46 ZM 687.23 230.56 C683.92,232.29 683.35,232.29 679.38,230.56 C674.97,228.65 673.00,225.35 673.00,219.91 C673.00,216.23 673.55,214.73 675.63,212.64 C678.07,210.21 678.87,210.02 686.13,210.15 L 694.00 210.30 L 694.00 220.65 C694.00,229.00 693.72,231.00 692.56,231.00 C691.77,231.00 690.86,230.58 690.54,230.07 C690.21,229.53 688.82,229.73 687.23,230.56 ZM 723.45 180.01 C721.61,181.85 719.03,183.24 716.95,183.51 C706.39,184.90 699.96,171.89 707.77,164.92 C712.32,160.85 718.64,160.81 723.13,164.83 C725.79,167.20 726.32,168.41 726.40,172.31 C726.48,176.23 726.02,177.44 723.45,180.01 ZM 570.00 181.54 C570.00,182.73 567.98,183.00 559.00,183.00 L 548.00 183.00 L 548.00 152.00 L 559.07 152.00 C569.08,152.00 570.11,152.17 569.81,153.75 C569.53,155.23 568.13,155.54 560.69,155.79 L 551.89 156.08 L 552.20 160.79 L 552.50 165.50 L 560.75 165.79 C568.18,166.05 569.00,166.28 569.00,168.04 C569.00,169.83 568.27,170.00 560.45,170.00 L 551.89 170.00 L 552.20 174.75 L 552.50 179.50 L 561.25 179.79 C568.13,180.02 570.00,180.39 570.00,181.54 ZM 257.49 276.83 C255.64,278.28 253.37,278.99 250.62,278.96 C242.44,278.88 238.00,274.29 238.00,265.94 C238.00,261.43 238.42,260.38 241.40,257.40 C244.50,254.30 245.31,254.00 250.65,254.03 C254.17,254.05 257.26,254.64 258.42,255.52 C260.24,256.90 260.25,257.06 258.61,258.88 C257.04,260.61 256.62,260.66 254.01,259.36 C248.49,256.60 243.00,260.18 243.00,266.55 C243.00,272.71 250.62,276.46 255.03,272.47 C257.78,269.98 257.49,269.00 254.00,269.00 C251.67,269.00 251.00,268.56 251.00,267.00 C251.00,265.22 251.67,265.00 257.00,265.00 C261.72,265.00 263.00,265.33 263.00,266.53 C263.00,269.49 260.22,274.68 257.49,276.83 ZM 362.00 272.49 C361.64,276.83 361.07,278.56 359.95,278.78 C357.40,279.26 357.00,278.03 357.00,269.72 L 357.00 261.77 L 360.04 262.22 C361.72,262.47 363.32,262.29 363.60,261.83 C364.35,260.63 369.41,260.81 370.69,262.09 C371.48,262.88 372.35,262.88 373.83,262.09 C376.97,260.41 380.79,260.79 383.00,263.00 C384.62,264.62 385.00,266.33 385.00,272.07 C385.00,278.83 384.90,279.13 382.75,278.82 C380.73,278.53 380.47,277.87 380.20,272.19 C379.91,265.98 379.86,265.88 377.20,266.19 C374.67,266.48 374.47,266.87 374.00,272.50 C373.56,277.74 373.22,278.54 371.30,278.81 C369.26,279.10 369.08,278.67 368.80,272.81 C368.50,266.53 368.48,266.50 365.50,266.50 C362.56,266.50 362.49,266.61 362.00,272.49 ZM 255.00 245.11 C250.83,248.11 247.13,248.29 240.70,245.80 C238.96,245.13 238.03,244.11 238.23,243.11 C238.57,241.41 241.15,241.20 246.50,242.43 C248.52,242.90 250.15,242.64 251.50,241.63 C254.14,239.66 252.75,238.28 246.51,236.71 C234.50,233.69 236.39,222.00 248.89,222.00 C251.08,222.00 254.04,222.45 255.48,222.99 C257.70,223.84 257.92,224.27 257.00,226.00 C256.15,227.59 255.35,227.87 253.21,227.30 C249.47,226.31 246.02,226.58 244.65,227.97 C243.07,229.57 245.90,231.57 250.85,232.36 C252.95,232.70 255.45,233.83 256.40,234.89 C258.87,237.62 258.15,242.83 255.00,245.11 ZM 290.00 246.58 C288.08,246.63 285.83,246.95 285.00,247.29 C283.11,248.09 278.38,245.57 277.03,243.05 C275.41,240.03 275.82,234.44 277.85,231.94 C279.23,230.23 280.66,229.69 283.60,229.76 C285.74,229.81 288.98,229.87 290.79,229.89 L 294.08 229.93 L 293.79 238.22 L 293.50 246.50 ZM 280.55 276.55 C276.77,280.32 269.79,279.60 266.28,275.07 C264.94,273.34 264.61,267.11 265.77,265.44 C267.40,263.09 271.63,261.00 274.77,261.00 C282.27,261.00 286.01,271.08 280.55,276.55 ZM 317.46 277.65 C314.86,279.55 308.93,279.29 306.15,277.15 C304.48,275.86 303.64,273.99 303.27,270.74 C302.83,266.77 303.10,265.81 305.33,263.58 C310.55,258.36 320.60,261.96 319.81,268.77 C319.52,271.33 319.14,271.53 313.58,272.00 C308.41,272.44 307.88,272.67 309.32,273.86 C310.41,274.76 312.15,275.01 314.41,274.58 C318.48,273.82 320.25,275.61 317.46,277.65 ZM 324.90 246.88 C324.80,246.92 324.69,246.96 324.59,246.99 C322.82,247.61 321.94,247.92 321.08,247.87 C320.16,247.81 319.27,247.35 317.38,246.42 C308.60,242.08 311.29,229.55 321.00,229.55 C325.94,229.55 329.00,232.44 329.00,237.11 C329.00,239.98 328.96,240.00 322.88,240.00 C317.46,240.00 316.90,240.18 318.04,241.55 C318.91,242.59 320.65,243.00 323.38,242.80 C328.69,242.41 329.73,245.20 324.90,246.88 ZM 402.46 277.65 C399.43,279.87 393.65,279.33 390.65,276.55 C388.65,274.70 388.00,273.13 388.00,270.16 C388.00,264.93 390.48,262.01 395.53,261.34 C400.80,260.63 404.09,263.13 404.33,268.02 L 404.50 271.50 L 398.58 272.00 C393.41,272.44 392.88,272.67 394.32,273.86 C395.41,274.76 397.15,275.01 399.41,274.58 C403.48,273.82 405.25,275.61 402.46,277.65 ZM 497.00 215.50 C497.00,257.83 496.66,280.00 496.00,280.00 C495.34,280.00 495.00,257.83 495.00,215.50 C495.00,173.17 495.34,151.00 496.00,151.00 C496.66,151.00 497.00,173.17 497.00,215.50 ZM 751.00 224.00 C751.00,229.17 750.65,231.00 749.67,231.00 C747.29,231.00 747.00,229.81 747.00,219.92 L 747.00 210.18 L 751.75 210.03 C754.36,209.95 757.82,209.85 759.44,209.81 C761.46,209.75 763.11,210.59 764.73,212.47 C766.83,214.91 767.05,216.03 766.79,222.84 C766.55,229.18 766.20,230.54 764.75,230.81 C763.21,231.11 763.00,230.25 763.00,223.64 C763.00,215.40 761.74,213.00 757.43,213.00 C752.87,213.00 751.00,216.21 751.00,224.00 ZM 735.65 175.53 C735.53,181.27 735.20,182.53 733.75,182.81 C732.17,183.11 732.00,182.12 732.00,172.79 L 732.00 162.44 L 739.42 162.21 C746.38,162.01 746.98,162.16 748.92,164.63 C750.63,166.79 751.00,168.69 751.00,175.13 C751.00,182.33 750.83,183.00 749.00,183.00 C747.18,183.00 747.00,182.33 747.00,175.57 C747.00,170.15 746.58,167.72 745.43,166.57 C743.36,164.50 740.74,164.58 738.01,166.79 C736.14,168.30 735.77,169.67 735.65,175.53 ZM 646.78 217.24 C646.53,228.92 646.29,230.51 644.75,230.81 C643.15,231.12 643.00,229.96 643.00,217.63 L 643.00 204.10 L 637.76 203.80 C633.71,203.57 632.44,203.10 632.19,201.75 C631.88,200.16 632.99,200.00 644.43,200.00 C656.33,200.00 657.00,200.11 657.00,202.00 C657.00,203.73 656.33,204.00 652.03,204.00 L 647.06 204.00 ZM 413.00 272.50 C412.56,277.78 412.23,278.54 410.25,278.82 C408.07,279.13 408.00,278.88 408.00,270.70 L 408.00 262.26 L 414.10 261.57 C422.72,260.59 424.00,261.90 424.00,271.72 C424.00,278.84 423.91,279.13 421.75,278.82 C419.73,278.53 419.47,277.87 419.20,272.19 C418.91,265.98 418.86,265.88 416.20,266.19 C413.67,266.48 413.47,266.87 413.00,272.50 ZM 714.77 223.42 C714.52,229.75 713.46,232.13 711.69,230.35 C711.31,229.98 711.00,225.24 711.00,219.83 C711.00,210.67 711.14,210.00 713.00,210.00 C714.10,210.00 715.00,210.51 715.00,211.12 C715.00,211.89 715.48,211.85 716.52,210.99 C719.03,208.90 725.87,209.42 728.34,211.89 C730.20,213.75 730.50,215.18 730.50,222.26 C730.50,229.27 730.25,230.51 728.75,230.80 C727.22,231.10 727.00,230.28 727.00,224.30 C727.00,216.56 725.28,213.00 721.55,213.00 C716.93,213.00 715.07,215.86 714.77,223.42 ZM 616.94 182.53 C612.35,184.91 608.14,184.05 604.50,180.02 C602.95,178.29 602.43,176.04 602.15,169.90 C601.81,162.42 601.90,162.00 603.89,162.00 C605.83,162.00 606.00,162.55 606.00,168.78 C606.00,176.86 607.68,180.00 612.00,180.00 C616.32,180.00 618.00,176.86 618.00,168.78 C618.00,162.67 618.20,162.00 620.00,162.00 C621.79,162.00 622.00,162.67 622.00,168.35 C622.00,176.51 620.51,180.69 616.94,182.53 ZM 576.77 223.42 C576.52,229.75 575.46,232.13 573.69,230.35 C573.31,229.98 573.00,225.24 573.00,219.83 C573.00,210.67 573.14,210.00 575.00,210.00 C576.10,210.00 577.00,210.51 577.00,211.12 C577.00,211.89 577.48,211.85 578.52,210.99 C581.03,208.90 587.87,209.42 590.34,211.89 C592.20,213.75 592.50,215.18 592.50,222.26 C592.50,229.27 592.25,230.51 590.75,230.80 C589.21,231.11 589.00,230.26 589.00,223.73 C589.00,215.74 587.54,213.00 583.28,213.00 C578.93,213.00 577.07,215.99 576.77,223.42 ZM 342.00 272.50 C341.56,277.78 341.23,278.54 339.25,278.82 C337.06,279.13 337.00,278.89 337.00,270.46 L 337.00 261.77 L 340.04 262.22 C341.72,262.47 343.32,262.29 343.60,261.83 C344.57,260.28 349.68,260.99 351.44,262.93 C352.69,264.32 353.23,266.76 353.34,271.68 C353.49,278.05 353.35,278.52 351.25,278.82 C349.16,279.12 349.00,278.76 348.98,273.82 C348.97,267.42 348.05,265.71 344.89,266.16 C342.74,266.47 342.45,267.11 342.00,272.50 ZM 689.37 182.88 C686.51,184.18 685.31,184.20 682.32,182.99 C679.13,181.71 678.00,178.88 678.00,172.18 C678.00,167.07 677.72,166.16 676.00,165.71 C674.90,165.42 674.00,164.52 674.00,163.71 C674.00,162.90 674.90,162.00 676.00,161.71 C677.35,161.36 678.00,160.35 678.00,158.59 C678.00,156.67 678.51,156.00 680.00,156.00 C681.56,156.00 682.00,156.67 682.00,159.00 C682.00,161.90 682.16,162.00 686.57,162.00 C690.39,162.00 691.09,162.29 690.81,163.75 C690.57,165.03 689.34,165.58 686.24,165.81 L 682.00 166.11 L 682.00 171.94 C682.00,178.69 683.40,180.51 687.83,179.54 C691.69,178.69 692.88,181.28 689.37,182.88 ZM 274.28 246.10 C272.77,247.57 268.48,247.97 266.50,246.83 C263.53,245.11 263.03,243.97 263.02,238.87 C263.00,235.08 262.63,234.14 261.00,233.71 C259.90,233.42 259.00,232.52 259.00,231.71 C259.00,230.90 259.90,230.00 261.00,229.71 C262.20,229.40 263.00,228.35 263.00,227.09 C263.00,225.53 263.63,225.00 265.50,225.00 C267.50,225.00 268.00,225.50 268.00,227.50 C268.00,229.62 268.46,230.00 271.07,230.00 C273.46,230.00 274.07,230.39 273.81,231.75 C273.61,232.82 272.39,233.63 270.69,233.82 C268.07,234.12 267.91,234.40 268.20,238.32 C268.48,242.16 268.72,242.49 271.17,242.32 C273.86,242.14 275.85,244.57 274.28,246.10 ZM 310.28 246.05 C308.81,247.41 305.50,247.85 303.32,246.98 C300.38,245.81 299.00,242.96 299.00,238.07 C299.00,235.12 298.59,234.00 297.50,234.00 C296.67,234.00 296.00,233.11 296.00,232.00 C296.00,230.89 296.67,230.00 297.50,230.00 C298.43,230.00 299.00,229.06 299.00,227.50 C299.00,224.06 303.70,223.84 304.18,227.25 C304.41,228.86 305.28,229.59 307.25,229.82 C309.19,230.04 310.00,230.70 310.00,232.07 C310.00,233.56 309.30,234.00 306.94,234.00 C303.96,234.00 303.89,234.11 304.19,238.25 C304.48,242.17 304.71,242.49 307.17,242.32 C309.84,242.15 311.88,244.59 310.28,246.05 ZM 440.82 277.72 C439.43,279.39 433.88,279.36 431.56,277.67 C430.35,276.79 429.57,274.59 429.24,271.17 C428.91,267.69 428.30,266.00 427.37,266.00 C425.37,266.00 425.69,262.21 427.73,261.81 C428.81,261.61 429.47,260.55 429.48,258.99 C429.51,255.53 433.18,255.53 433.99,259.00 C434.41,260.79 435.35,261.59 437.29,261.82 C439.19,262.04 440.00,262.71 440.00,264.07 C440.00,265.55 439.30,266.00 437.00,266.00 C434.26,266.00 434.00,266.29 434.00,269.38 C434.00,273.21 435.92,275.35 438.47,274.37 C440.63,273.54 442.30,275.93 440.82,277.72 ZM 710.45 177.55 C713.79,180.89 718.22,180.81 720.93,177.37 C723.71,173.83 723.54,170.45 720.43,167.34 C718.36,165.27 717.25,164.90 714.68,165.39 C708.26,166.63 706.01,173.10 710.45,177.55 ZM 680.32 226.81 C684.75,228.95 688.06,227.68 689.95,223.11 C692.44,217.12 686.38,211.14 680.52,213.81 C675.31,216.18 675.18,224.33 680.32,226.81 ZM 603.40 225.67 C606.64,228.45 609.04,228.62 611.89,226.25 C616.96,222.04 614.34,213.00 608.04,213.00 C601.10,213.00 598.13,221.13 603.40,225.67 ZM 654.17 177.69 C658.52,182.31 666.00,178.96 666.00,172.40 C666.00,168.91 662.30,165.00 659.00,165.00 C658.05,165.00 656.08,165.93 654.63,167.07 C651.30,169.69 651.10,174.41 654.17,177.69 ZM 552.63 225.93 C554.08,227.07 556.13,228.00 557.18,228.00 C559.86,228.00 564.00,223.56 564.00,220.68 C564.00,216.95 560.36,213.00 556.93,213.00 C550.31,213.00 547.39,221.80 552.63,225.93 ZM 581.19 177.96 C583.87,180.46 588.15,180.60 590.27,178.25 C596.36,171.49 589.95,162.39 581.99,166.50 C579.44,167.82 579.00,168.63 579.00,171.99 C579.00,174.75 579.65,176.53 581.19,177.96 ZM 643.89 181.54 C641.30,184.13 635.91,184.35 632.19,182.03 C622.53,175.98 626.15,162.00 637.39,162.00 C642.12,162.00 646.14,164.22 644.47,165.91 C643.76,166.63 642.33,166.61 639.78,165.82 C636.76,164.90 635.68,164.98 633.68,166.29 C626.32,171.11 632.04,182.31 640.28,179.20 C644.09,177.76 646.26,179.17 643.89,181.54 ZM 781.00 227.29 C783.45,228.19 783.77,228.10 786.61,225.66 C793.70,219.56 785.87,209.20 778.22,214.56 C773.96,217.54 775.66,225.33 781.00,227.29 ZM 298.89 271.25 C296.24,277.84 295.42,279.00 293.42,279.00 C292.13,279.00 290.65,278.21 290.14,277.25 C289.08,275.25 284.00,262.86 284.00,262.26 C284.00,262.04 285.22,262.01 286.72,262.18 C288.98,262.45 289.69,263.29 290.97,267.24 C291.81,269.85 292.80,271.99 293.17,271.99 C293.54,272.00 294.59,269.75 295.50,267.00 C296.88,262.84 297.56,262.00 299.58,262.00 C300.91,262.00 302.00,262.34 302.01,262.75 C302.01,263.16 300.61,266.99 298.89,271.25 ZM 344.00 165.00 L 344.00 176.10 L 349.72 175.80 C354.72,175.54 355.62,175.17 356.93,172.83 C358.21,170.53 358.23,169.79 357.04,167.58 C355.80,165.26 355.07,165.00 349.83,165.00 ZM 661.00 223.65 C661.00,229.11 660.66,231.00 659.67,231.00 C657.28,231.00 657.00,229.81 657.00,219.83 C657.00,210.67 657.14,210.00 659.00,210.00 C660.10,210.00 661.00,210.42 661.00,210.94 C661.00,211.46 662.24,211.24 663.75,210.45 C666.89,208.81 667.98,208.70 669.78,209.85 C671.96,211.23 670.19,213.76 667.41,213.23 C662.83,212.35 661.00,215.32 661.00,223.65 ZM 328.00 272.50 C327.56,277.78 327.23,278.54 325.25,278.82 C323.07,279.13 323.00,278.88 323.00,270.71 L 323.00 262.28 L 328.64 261.61 C331.74,261.25 334.49,261.15 334.73,261.40 C336.01,262.68 333.63,265.91 331.20,266.19 C328.67,266.48 328.47,266.87 328.00,272.50 ZM 699.00 172.50 C699.00,182.33 698.87,183.00 697.00,183.00 C695.13,183.00 695.00,182.33 695.00,172.50 C695.00,162.67 695.13,162.00 697.00,162.00 C698.87,162.00 699.00,162.67 699.00,172.50 ZM 741.00 220.50 C741.00,230.33 740.87,231.00 739.00,231.00 C737.13,231.00 737.00,230.33 737.00,220.50 C737.00,210.67 737.13,210.00 739.00,210.00 C740.87,210.00 741.00,210.67 741.00,220.50 ZM 704.78 220.24 C704.54,229.06 704.26,230.52 702.75,230.81 C701.17,231.11 701.00,230.10 701.00,220.57 C701.00,210.61 701.12,210.00 703.03,210.00 C704.97,210.00 705.06,210.51 704.78,220.24 ZM 282.30 241.80 C283.62,243.47 287.01,242.96 288.30,240.90 C288.84,240.03 288.99,238.11 288.63,236.65 C288.10,234.53 287.37,234.00 285.02,234.00 C280.59,234.00 279.22,237.92 282.30,241.80 ZM 271.61 273.70 C272.58,274.42 273.66,275.00 274.00,275.00 C276.14,275.00 278.14,272.11 277.84,269.45 C277.54,266.81 277.13,266.50 274.00,266.50 C270.87,266.50 270.46,266.81 270.16,269.45 C269.94,271.41 270.42,272.84 271.61,273.70 ZM 420.71 184.38 C421.05,184.72 422.83,185.00 424.67,185.00 C428.49,185.00 428.73,184.02 426.08,179.05 L 424.24 175.60 L 422.16 179.68 C421.02,181.92 420.37,184.03 420.71,184.38 ZM 741.27 203.75 C740.76,205.21 739.09,205.34 737.10,204.09 C735.22,202.89 736.46,200.00 738.86,200.00 C740.91,200.00 741.99,201.69 741.27,203.75 ZM 704.82 202.24 C704.45,204.85 701.26,205.85 700.41,203.62 C699.60,201.51 700.74,200.00 703.13,200.00 C704.64,200.00 705.06,200.56 704.82,202.24 ZM 699.81 154.74 C699.63,155.69 698.69,156.63 697.74,156.81 C695.67,157.21 694.28,154.32 695.80,152.80 C697.32,151.28 700.21,152.67 699.81,154.74 ZM 308.61 268.17 C309.40,269.45 314.25,268.79 314.73,267.33 C315.28,265.64 311.16,264.62 309.46,266.03 C308.67,266.69 308.28,267.65 308.61,268.17 ZM 393.61 268.17 C394.34,269.36 399.03,268.83 399.17,267.54 C399.22,267.01 398.57,266.13 397.72,265.59 C395.96,264.48 392.62,266.57 393.61,268.17 ZM 317.50 235.99 C318.43,237.50 324.26,237.27 323.75,235.75 C323.52,235.06 322.56,234.35 321.61,234.17 C319.20,233.70 316.75,234.79 317.50,235.99 Z" fill="#8C8880"></path>
<path d="M 0.00 200.00 L 0.00 0.00 L 450.00 0.00 L 900.00 0.00 L 900.00 200.00 L 900.00 400.00 L 450.00 400.00 L 0.00 400.00 L 0.00 200.00 ZM 188.99 250.60 C201.68,223.17 211.92,200.59 211.74,200.41 C211.57,200.24 209.08,200.78 206.22,201.62 C199.55,203.57 192.17,202.21 185.51,197.80 C169.96,187.50 170.77,164.72 187.00,155.59 C191.80,152.89 193.45,152.50 200.00,152.52 C205.32,152.53 208.52,153.07 211.00,154.38 C215.06,156.52 221.00,161.91 221.00,163.45 C221.00,164.34 212.79,170.00 211.50,170.00 C211.28,170.00 209.43,168.88 207.40,167.50 C196.40,160.03 183.48,171.36 189.57,183.14 C191.80,187.44 198.99,190.55 203.27,189.06 C205.00,188.45 207.42,187.01 208.66,185.85 L 210.90 183.74 L 214.46 185.84 L 218.01 187.94 L 222.44 178.46 C224.88,173.25 227.15,168.09 227.50,166.99 C228.04,165.30 229.02,165.00 234.07,165.00 L 240.00 165.00 L 240.00 183.50 L 240.00 202.00 L 247.00 202.00 L 254.00 202.00 L 254.00 183.50 L 254.00 165.00 L 260.50 165.00 L 267.00 165.00 L 267.00 159.00 L 267.00 153.00 L 251.56 153.00 C243.07,153.00 235.87,152.60 235.57,152.12 C235.27,151.63 241.80,136.67 250.08,118.87 C258.36,101.07 265.38,85.94 265.67,85.25 C266.10,84.25 245.59,84.00 165.00,84.00 C69.02,84.00 63.82,84.09 64.45,85.75 C64.81,86.71 71.92,102.24 80.25,120.25 L 95.39 153.00 L 102.95 153.00 L 110.50 153.01 L 116.42 166.04 C119.67,173.21 122.68,178.72 123.10,178.28 C123.52,177.85 126.30,172.10 129.28,165.50 L 134.69 153.50 L 142.30 153.21 L 149.91 152.92 L 146.53 160.21 C144.67,164.22 139.58,175.15 135.23,184.50 L 127.31 201.50 L 122.83 202.00 L 118.35 202.50 L 141.36 252.26 C154.02,279.63 164.72,301.68 165.15,301.25 C165.57,300.83 176.30,278.04 188.99,250.60 ZM 497.00 215.50 C497.00,173.17 496.66,151.00 496.00,151.00 C495.34,151.00 495.00,173.17 495.00,215.50 C495.00,257.83 495.34,280.00 496.00,280.00 C496.66,280.00 497.00,257.83 497.00,215.50 ZM 257.49 276.83 C260.22,274.68 263.00,269.49 263.00,266.53 C263.00,265.33 261.72,265.00 257.00,265.00 C251.67,265.00 251.00,265.22 251.00,267.00 C251.00,268.56 251.67,269.00 254.00,269.00 C257.49,269.00 257.78,269.98 255.03,272.47 C250.62,276.46 243.00,272.71 243.00,266.55 C243.00,260.18 248.49,256.60 254.01,259.36 C256.62,260.66 257.04,260.61 258.61,258.88 C260.25,257.06 260.24,256.90 258.42,255.52 C257.26,254.64 254.17,254.05 250.65,254.03 C245.31,254.00 244.50,254.30 241.40,257.40 C238.42,260.38 238.00,261.43 238.00,265.94 C238.00,274.29 242.44,278.88 250.62,278.96 C253.37,278.99 255.64,278.28 257.49,276.83 ZM 280.55 276.55 C286.01,271.08 282.27,261.00 274.77,261.00 C271.63,261.00 267.40,263.09 265.77,265.44 C264.61,267.11 264.94,273.34 266.28,275.07 C269.79,279.60 276.77,280.32 280.55,276.55 ZM 298.89 271.25 C300.61,266.99 302.01,263.16 302.01,262.75 C302.00,262.34 300.91,262.00 299.58,262.00 C297.56,262.00 296.88,262.84 295.50,267.00 C294.59,269.75 293.54,272.00 293.17,271.99 C292.80,271.99 291.81,269.85 290.97,267.24 C289.69,263.29 288.98,262.45 286.72,262.18 C285.22,262.01 284.00,262.04 284.00,262.26 C284.00,262.86 289.08,275.25 290.14,277.25 C290.65,278.21 292.13,279.00 293.42,279.00 C295.42,279.00 296.24,277.84 298.89,271.25 ZM 317.46 277.65 C320.25,275.61 318.48,273.82 314.41,274.58 C312.15,275.01 310.41,274.76 309.32,273.86 C307.88,272.67 308.41,272.44 313.58,272.00 C319.14,271.53 319.52,271.33 319.81,268.77 C320.60,261.96 310.55,258.36 305.33,263.58 C303.10,265.81 302.83,266.77 303.27,270.74 C303.64,273.99 304.48,275.86 306.15,277.15 C308.93,279.29 314.86,279.55 317.46,277.65 ZM 328.00 272.50 C328.47,266.87 328.67,266.48 331.20,266.19 C333.63,265.91 336.01,262.68 334.73,261.40 C334.49,261.15 331.74,261.25 328.64,261.61 L 323.00 262.28 L 323.00 270.71 C323.00,278.88 323.07,279.13 325.25,278.82 C327.23,278.54 327.56,277.78 328.00,272.50 ZM 342.00 272.50 C342.45,267.11 342.74,266.47 344.89,266.16 C348.05,265.71 348.97,267.42 348.98,273.82 C349.00,278.76 349.16,279.12 351.25,278.82 C353.35,278.52 353.49,278.05 353.34,271.68 C353.23,266.76 352.69,264.32 351.44,262.93 C349.68,260.99 344.57,260.28 343.60,261.83 C343.32,262.29 341.72,262.47 340.04,262.22 L 337.00 261.77 L 337.00 270.46 C337.00,278.89 337.06,279.13 339.25,278.82 C341.23,278.54 341.56,277.78 342.00,272.50 ZM 362.00 272.49 C362.49,266.61 362.56,266.50 365.50,266.50 C368.48,266.50 368.50,266.53 368.80,272.81 C369.08,278.67 369.26,279.10 371.30,278.81 C373.22,278.54 373.56,277.74 374.00,272.50 C374.47,266.87 374.67,266.48 377.20,266.19 C379.86,265.88 379.91,265.98 380.20,272.19 C380.47,277.87 380.73,278.53 382.75,278.82 C384.90,279.13 385.00,278.83 385.00,272.07 C385.00,266.33 384.62,264.62 383.00,263.00 C380.79,260.79 376.97,260.41 373.83,262.09 C372.35,262.88 371.48,262.88 370.69,262.09 C369.41,260.81 364.35,260.63 363.60,261.83 C363.32,262.29 361.72,262.47 360.04,262.22 L 357.00 261.77 L 357.00 269.72 C357.00,278.03 357.40,279.26 359.95,278.78 C361.07,278.56 361.64,276.83 362.00,272.49 ZM 402.46 277.65 C405.25,275.61 403.48,273.82 399.41,274.58 C397.15,275.01 395.41,274.76 394.32,273.86 C392.88,272.67 393.41,272.44 398.58,272.00 L 404.50 271.50 L 404.33 268.02 C404.09,263.13 400.80,260.63 395.53,261.34 C390.48,262.01 388.00,264.93 388.00,270.16 C388.00,273.13 388.65,274.70 390.65,276.55 C393.65,279.33 399.43,279.87 402.46,277.65 ZM 413.00 272.50 C413.47,266.87 413.67,266.48 416.20,266.19 C418.86,265.88 418.91,265.98 419.20,272.19 C419.47,277.87 419.73,278.53 421.75,278.82 C423.91,279.13 424.00,278.84 424.00,271.72 C424.00,261.90 422.72,260.59 414.10,261.57 L 408.00 262.26 L 408.00 270.70 C408.00,278.88 408.07,279.13 410.25,278.82 C412.23,278.54 412.56,277.78 413.00,272.50 ZM 440.82 277.72 C442.30,275.93 440.63,273.54 438.47,274.37 C435.92,275.35 434.00,273.21 434.00,269.38 C434.00,266.29 434.26,266.00 437.00,266.00 C439.30,266.00 440.00,265.55 440.00,264.07 C440.00,262.71 439.19,262.04 437.29,261.82 C435.35,261.59 434.41,260.79 433.99,259.00 C433.18,255.53 429.51,255.53 429.48,258.99 C429.47,260.55 428.81,261.61 427.73,261.81 C425.69,262.21 425.37,266.00 427.37,266.00 C428.30,266.00 428.91,267.69 429.24,271.17 C429.57,274.59 430.35,276.79 431.56,277.67 C433.88,279.36 439.43,279.39 440.82,277.72 ZM 255.00 245.11 C258.15,242.83 258.87,237.62 256.40,234.89 C255.45,233.83 252.95,232.70 250.85,232.36 C245.90,231.57 243.07,229.57 244.65,227.97 C246.02,226.58 249.47,226.31 253.21,227.30 C255.35,227.87 256.15,227.59 257.00,226.00 C257.92,224.27 257.70,223.84 255.48,222.99 C254.04,222.45 251.08,222.00 248.89,222.00 C236.39,222.00 234.50,233.69 246.51,236.71 C252.75,238.28 254.14,239.66 251.50,241.63 C250.15,242.64 248.52,242.90 246.50,242.43 C241.15,241.20 238.57,241.41 238.23,243.11 C238.03,244.11 238.96,245.13 240.70,245.80 C247.13,248.29 250.83,248.11 255.00,245.11 ZM 274.28 246.10 C275.85,244.57 273.86,242.14 271.17,242.32 C268.72,242.49 268.48,242.16 268.20,238.32 C267.91,234.40 268.07,234.12 270.69,233.82 C272.39,233.63 273.61,232.82 273.81,231.75 C274.07,230.39 273.46,230.00 271.07,230.00 C268.46,230.00 268.00,229.62 268.00,227.50 C268.00,225.50 267.50,225.00 265.50,225.00 C263.63,225.00 263.00,225.53 263.00,227.09 C263.00,228.35 262.20,229.40 261.00,229.71 C259.90,230.00 259.00,230.90 259.00,231.71 C259.00,232.52 259.90,233.42 261.00,233.71 C262.63,234.14 263.00,235.08 263.02,238.87 C263.03,243.97 263.53,245.11 266.50,246.83 C268.48,247.97 272.77,247.57 274.28,246.10 ZM 290.00 246.58 L 293.50 246.50 L 293.79 238.22 L 294.08 229.93 L 290.79 229.89 C288.98,229.87 285.74,229.81 283.60,229.76 C280.66,229.69 279.23,230.23 277.85,231.94 C275.82,234.44 275.41,240.03 277.03,243.05 C278.38,245.57 283.11,248.09 285.00,247.29 C285.83,246.95 288.08,246.63 290.00,246.58 ZM 310.28 246.05 C311.88,244.59 309.84,242.15 307.17,242.32 C304.71,242.49 304.48,242.17 304.19,238.25 C303.89,234.11 303.96,234.00 306.94,234.00 C309.30,234.00 310.00,233.56 310.00,232.07 C310.00,230.70 309.19,230.04 307.25,229.82 C305.28,229.59 304.41,228.86 304.18,227.25 C303.70,223.84 299.00,224.06 299.00,227.50 C299.00,229.06 298.43,230.00 297.50,230.00 C296.67,230.00 296.00,230.89 296.00,232.00 C296.00,233.11 296.67,234.00 297.50,234.00 C298.59,234.00 299.00,235.12 299.00,238.07 C299.00,242.96 300.38,245.81 303.32,246.98 C305.50,247.85 308.81,247.41 310.28,246.05 ZM 324.90 246.88 C329.73,245.20 328.69,242.41 323.38,242.80 C320.65,243.00 318.91,242.59 318.04,241.55 C316.90,240.18 317.46,240.00 322.88,240.00 C328.96,240.00 329.00,239.98 329.00,237.11 C329.00,232.44 325.94,229.55 321.00,229.55 C311.29,229.55 308.60,242.08 317.38,246.42 C321.16,248.28 320.94,248.26 324.90,246.88 ZM 788.63 238.23 C792.30,235.26 793.00,232.51 793.00,221.07 C793.00,210.67 792.88,210.00 791.00,210.00 C789.90,210.00 789.00,210.54 789.00,211.20 C789.00,212.13 788.73,212.13 787.80,211.20 C787.14,210.54 784.42,210.00 781.75,210.00 C774.98,210.00 772.00,213.00 772.00,219.82 C772.00,223.25 772.62,225.51 774.04,227.33 C776.46,230.40 782.15,231.76 786.19,230.23 C788.64,229.31 789.00,229.41 789.00,231.01 C789.00,234.03 784.04,237.26 780.51,236.55 C775.19,235.47 773.71,235.48 773.32,236.58 C772.20,239.79 785.00,241.17 788.63,238.23 ZM 560.42 230.46 C562.60,229.33 563.53,229.24 564.07,230.12 C564.47,230.76 565.52,231.01 566.40,230.68 C567.72,230.17 568.00,228.32 568.00,220.18 L 568.00 210.30 L 559.92 210.15 C552.24,210.00 551.71,210.14 548.92,212.92 C543.84,218.01 545.54,227.05 552.20,230.33 C556.29,232.34 556.80,232.35 560.42,230.46 ZM 611.23 230.56 C612.82,229.73 614.21,229.53 614.54,230.07 C614.86,230.58 615.77,231.00 616.56,231.00 C617.75,231.00 618.00,228.26 618.00,215.00 C618.00,199.44 617.94,199.00 615.91,199.00 C613.99,199.00 613.85,199.47 614.16,205.03 L 614.50 211.05 L 611.50 210.38 C605.51,209.04 602.70,209.58 599.64,212.64 C597.55,214.73 597.00,216.23 597.00,219.91 C597.00,225.35 598.97,228.65 603.38,230.56 C607.35,232.29 607.92,232.29 611.23,230.56 ZM 687.23 230.56 C688.82,229.73 690.21,229.53 690.54,230.07 C690.86,230.58 691.77,231.00 692.56,231.00 C693.72,231.00 694.00,229.00 694.00,220.65 L 694.00 210.30 L 686.13 210.15 C678.87,210.02 678.07,210.21 675.63,212.64 C673.55,214.73 673.00,216.23 673.00,219.91 C673.00,225.35 674.97,228.65 679.38,230.56 C683.35,232.29 683.92,232.29 687.23,230.56 ZM 576.77 223.42 C577.07,215.99 578.93,213.00 583.28,213.00 C587.54,213.00 589.00,215.74 589.00,223.73 C589.00,230.26 589.21,231.11 590.75,230.80 C592.25,230.51 592.50,229.27 592.50,222.26 C592.50,215.18 592.20,213.75 590.34,211.89 C587.87,209.42 581.03,208.90 578.52,210.99 C577.48,211.85 577.00,211.89 577.00,211.12 C577.00,210.51 576.10,210.00 575.00,210.00 C573.14,210.00 573.00,210.67 573.00,219.83 C573.00,225.24 573.31,229.98 573.69,230.35 C575.46,232.13 576.52,229.75 576.77,223.42 ZM 646.78 217.24 L 647.06 204.00 L 652.03 204.00 C656.33,204.00 657.00,203.73 657.00,202.00 C657.00,200.11 656.33,200.00 644.43,200.00 C632.99,200.00 631.88,200.16 632.19,201.75 C632.44,203.10 633.71,203.57 637.76,203.80 L 643.00 204.10 L 643.00 217.63 C643.00,229.96 643.15,231.12 644.75,230.81 C646.29,230.51 646.53,228.92 646.78,217.24 ZM 661.00 223.65 C661.00,215.32 662.83,212.35 667.41,213.23 C670.19,213.76 671.96,211.23 669.78,209.85 C667.98,208.70 666.89,208.81 663.75,210.45 C662.24,211.24 661.00,211.46 661.00,210.94 C661.00,210.42 660.10,210.00 659.00,210.00 C657.14,210.00 657.00,210.67 657.00,219.83 C657.00,229.81 657.28,231.00 659.67,231.00 C660.66,231.00 661.00,229.11 661.00,223.65 ZM 704.78 220.24 C705.06,210.51 704.97,210.00 703.03,210.00 C701.12,210.00 701.00,210.61 701.00,220.57 C701.00,230.10 701.17,231.11 702.75,230.81 C704.26,230.52 704.54,229.06 704.78,220.24 ZM 714.77 223.42 C715.07,215.86 716.93,213.00 721.55,213.00 C725.28,213.00 727.00,216.56 727.00,224.30 C727.00,230.28 727.22,231.10 728.75,230.80 C730.25,230.51 730.50,229.27 730.50,222.26 C730.50,215.18 730.20,213.75 728.34,211.89 C725.87,209.42 719.03,208.90 716.52,210.99 C715.48,211.85 715.00,211.89 715.00,211.12 C715.00,210.51 714.10,210.00 713.00,210.00 C711.14,210.00 711.00,210.67 711.00,219.83 C711.00,225.24 711.31,229.98 711.69,230.35 C713.46,232.13 714.52,229.75 714.77,223.42 ZM 741.00 220.50 C741.00,210.67 740.87,210.00 739.00,210.00 C737.13,210.00 737.00,210.67 737.00,220.50 C737.00,230.33 737.13,231.00 739.00,231.00 C740.87,231.00 741.00,230.33 741.00,220.50 ZM 751.00 224.00 C751.00,216.21 752.87,213.00 757.43,213.00 C761.74,213.00 763.00,215.40 763.00,223.64 C763.00,230.25 763.21,231.11 764.75,230.81 C766.20,230.54 766.55,229.18 766.79,222.84 C767.05,216.03 766.83,214.91 764.73,212.47 C763.11,210.59 761.46,209.75 759.44,209.81 C757.82,209.85 754.36,209.95 751.75,210.03 L 747.00 210.18 L 747.00 219.92 C747.00,229.81 747.29,231.00 749.67,231.00 C750.65,231.00 751.00,229.17 751.00,224.00 ZM 704.82 202.24 C705.06,200.56 704.64,200.00 703.13,200.00 C700.74,200.00 699.60,201.51 700.41,203.62 C701.26,205.85 704.45,204.85 704.82,202.24 ZM 741.27 203.75 C741.99,201.69 740.91,200.00 738.86,200.00 C736.46,200.00 735.22,202.89 737.10,204.09 C739.09,205.34 740.76,205.21 741.27,203.75 ZM 308.51 200.65 C314.03,198.08 319.42,192.57 321.79,187.07 C322.64,185.11 323.35,180.57 323.37,177.00 C323.40,171.66 322.88,169.54 320.48,165.13 C315.45,155.91 308.38,152.00 296.71,152.00 C290.67,152.00 288.39,152.49 283.94,154.75 C264.43,164.64 265.89,191.78 286.43,201.11 C292.39,203.81 302.15,203.61 308.51,200.65 ZM 344.00 195.50 L 344.00 189.00 L 347.28 189.00 C350.35,189.00 350.73,189.40 353.39,195.50 L 356.22 202.00 L 364.12 202.00 L 372.02 202.00 L 367.94 193.88 L 363.86 185.76 L 366.38 183.13 C369.59,179.78 372.00,174.01 372.00,169.69 C372.00,164.61 367.99,157.86 363.42,155.27 C359.86,153.24 358.16,153.03 344.75,153.02 L 330.00 153.00 L 330.00 177.50 L 330.00 202.00 L 337.00 202.00 L 344.00 202.00 L 344.00 195.50 ZM 394.00 177.50 L 394.00 153.00 L 387.00 153.00 L 380.00 153.00 L 380.00 177.50 L 380.00 202.00 L 387.00 202.00 L 394.00 202.00 L 394.00 177.50 ZM 414.59 199.50 C415.20,197.07 415.46,197.00 424.13,197.00 C432.67,197.00 433.09,197.11 434.18,199.50 C435.25,201.83 435.80,202.00 442.64,202.00 L 449.95 202.00 L 446.64 194.75 C426.64,150.97 427.74,153.05 424.46,153.03 C421.46,153.00 421.26,153.33 410.46,176.63 C404.43,189.63 399.35,200.65 399.17,201.13 C398.98,201.61 402.24,202.00 406.40,202.00 C413.63,202.00 413.99,201.89 414.59,199.50 ZM 589.96 182.31 C591.67,181.11 592.49,180.97 592.77,181.81 C592.99,182.47 593.80,183.00 594.58,183.00 C595.75,183.00 596.00,180.14 596.00,167.00 C596.00,153.44 595.77,151.00 594.50,151.00 C593.34,151.00 593.00,152.32 593.00,156.91 L 593.00 162.81 L 587.06 162.27 C581.44,161.76 580.95,161.90 578.06,164.79 C575.63,167.21 575.00,168.70 575.00,171.99 C575.00,177.18 576.27,179.58 580.31,182.05 C584.23,184.44 586.83,184.51 589.96,182.31 ZM 616.94 182.53 C620.51,180.69 622.00,176.51 622.00,168.35 C622.00,162.67 621.79,162.00 620.00,162.00 C618.20,162.00 618.00,162.67 618.00,168.78 C618.00,176.86 616.32,180.00 612.00,180.00 C607.68,180.00 606.00,176.86 606.00,168.78 C606.00,162.55 605.83,162.00 603.89,162.00 C601.90,162.00 601.81,162.42 602.15,169.90 C602.43,176.04 602.95,178.29 604.50,180.02 C608.14,184.05 612.35,184.91 616.94,182.53 ZM 643.89 181.54 C646.26,179.17 644.09,177.76 640.28,179.20 C632.04,182.31 626.32,171.11 633.68,166.29 C635.68,164.98 636.76,164.90 639.78,165.82 C642.33,166.61 643.76,166.63 644.47,165.91 C646.14,164.22 642.12,162.00 637.39,162.00 C626.15,162.00 622.53,175.98 632.19,182.03 C635.91,184.35 641.30,184.13 643.89,181.54 ZM 666.75 182.88 L 670.00 183.00 L 670.00 172.69 L 670.00 162.38 L 661.94 162.20 C654.64,162.05 653.65,162.26 651.48,164.43 C646.36,169.55 646.98,177.53 652.79,181.55 C655.78,183.62 657.18,183.98 660.00,183.44 C661.92,183.07 664.96,182.82 666.75,182.88 ZM 689.37 182.88 C692.88,181.28 691.69,178.69 687.83,179.54 C683.40,180.51 682.00,178.69 682.00,171.94 L 682.00 166.11 L 686.24 165.81 C689.34,165.58 690.57,165.03 690.81,163.75 C691.09,162.29 690.39,162.00 686.57,162.00 C682.16,162.00 682.00,161.90 682.00,159.00 C682.00,156.67 681.56,156.00 680.00,156.00 C678.51,156.00 678.00,156.67 678.00,158.59 C678.00,160.35 677.35,161.36 676.00,161.71 C674.90,162.00 674.00,162.90 674.00,163.71 C674.00,164.52 674.90,165.42 676.00,165.71 C677.72,166.16 678.00,167.07 678.00,172.18 C678.00,178.88 679.13,181.71 682.32,182.99 C685.31,184.20 686.51,184.18 689.37,182.88 ZM 723.45 180.01 C726.02,177.44 726.48,176.23 726.40,172.31 C726.32,168.41 725.79,167.20 723.13,164.83 C718.64,160.81 712.32,160.85 707.77,164.92 C699.96,171.89 706.39,184.90 716.95,183.51 C719.03,183.24 721.61,181.85 723.45,180.01 ZM 570.00 181.54 C570.00,180.39 568.13,180.02 561.25,179.79 L 552.50 179.50 L 552.20 174.75 L 551.89 170.00 L 560.45 170.00 C568.27,170.00 569.00,169.83 569.00,168.04 C569.00,166.28 568.18,166.05 560.75,165.79 L 552.50 165.50 L 552.20 160.79 L 551.89 156.08 L 560.69 155.79 C568.13,155.54 569.53,155.23 569.81,153.75 C570.11,152.17 569.08,152.00 559.07,152.00 L 548.00 152.00 L 548.00 167.50 L 548.00 183.00 L 559.00 183.00 C567.98,183.00 570.00,182.73 570.00,181.54 ZM 699.00 172.50 C699.00,162.67 698.87,162.00 697.00,162.00 C695.13,162.00 695.00,162.67 695.00,172.50 C695.00,182.33 695.13,183.00 697.00,183.00 C698.87,183.00 699.00,182.33 699.00,172.50 ZM 735.65 175.53 C735.77,169.67 736.14,168.30 738.01,166.79 C740.74,164.58 743.36,164.50 745.43,166.57 C746.58,167.72 747.00,170.15 747.00,175.57 C747.00,182.33 747.18,183.00 749.00,183.00 C750.83,183.00 751.00,182.33 751.00,175.13 C751.00,168.69 750.63,166.79 748.92,164.63 C746.98,162.16 746.38,162.01 739.42,162.21 L 732.00 162.44 L 732.00 172.79 C732.00,182.12 732.17,183.11 733.75,182.81 C735.20,182.53 735.53,181.27 735.65,175.53 ZM 699.81 154.74 C700.21,152.67 697.32,151.28 695.80,152.80 C694.28,154.32 695.67,157.21 697.74,156.81 C698.69,156.63 699.63,155.69 699.81,154.74 ZM 154.71 201.38 C154.32,200.99 154.00,189.94 154.00,176.83 L 154.00 153.00 L 161.02 153.00 L 168.04 153.00 L 167.77 177.25 L 167.50 201.50 L 161.46 201.79 C158.14,201.95 155.10,201.77 154.71,201.38 ZM 271.61 273.70 C270.42,272.84 269.94,271.41 270.16,269.45 C270.46,266.81 270.87,266.50 274.00,266.50 C277.13,266.50 277.54,266.81 277.84,269.45 C278.14,272.11 276.14,275.00 274.00,275.00 C273.66,275.00 272.58,274.42 271.61,273.70 ZM 308.61 268.17 C308.28,267.65 308.67,266.69 309.46,266.03 C311.16,264.62 315.28,265.64 314.73,267.33 C314.25,268.79 309.40,269.45 308.61,268.17 ZM 393.61 268.17 C392.62,266.57 395.96,264.48 397.72,265.59 C398.57,266.13 399.22,267.01 399.17,267.54 C399.03,268.83 394.34,269.36 393.61,268.17 ZM 282.30 241.80 C279.22,237.92 280.59,234.00 285.02,234.00 C287.37,234.00 288.10,234.53 288.63,236.65 C288.99,238.11 288.84,240.03 288.30,240.90 C287.01,242.96 283.62,243.47 282.30,241.80 ZM 317.50 235.99 C316.75,234.79 319.20,233.70 321.61,234.17 C322.56,234.35 323.52,235.06 323.75,235.75 C324.26,237.27 318.43,237.50 317.50,235.99 ZM 781.00 227.29 C775.66,225.33 773.96,217.54 778.22,214.56 C785.87,209.20 793.70,219.56 786.61,225.66 C783.77,228.10 783.45,228.19 781.00,227.29 ZM 552.63 225.93 C547.39,221.80 550.31,213.00 556.93,213.00 C560.36,213.00 564.00,216.95 564.00,220.68 C564.00,223.56 559.86,228.00 557.18,228.00 C556.13,228.00 554.08,227.07 552.63,225.93 ZM 603.40 225.67 C598.13,221.13 601.10,213.00 608.04,213.00 C614.34,213.00 616.96,222.04 611.89,226.25 C609.04,228.62 606.64,228.45 603.40,225.67 ZM 680.32 226.81 C675.18,224.33 675.31,216.18 680.52,213.81 C686.38,211.14 692.44,217.12 689.95,223.11 C688.06,227.68 684.75,228.95 680.32,226.81 ZM 292.42 188.58 C287.58,186.48 285.00,182.47 285.00,177.09 C285.00,171.83 286.79,168.68 291.01,166.49 C296.96,163.42 304.66,165.51 307.48,170.97 C310.83,177.44 307.97,185.86 301.51,188.56 C297.34,190.30 296.38,190.30 292.42,188.58 ZM 344.00 170.55 L 344.00 165.00 L 349.83 165.00 C355.07,165.00 355.80,165.26 357.04,167.58 C358.23,169.79 358.21,170.53 356.93,172.83 C355.62,175.17 354.72,175.54 349.72,175.80 L 344.00 176.10 L 344.00 170.55 ZM 420.71 184.38 C420.37,184.03 421.02,181.92 422.16,179.68 L 424.24 175.60 L 426.08 179.05 C428.73,184.02 428.49,185.00 424.67,185.00 C422.83,185.00 421.05,184.72 420.71,184.38 ZM 581.19 177.96 C579.65,176.53 579.00,174.75 579.00,171.99 C579.00,168.63 579.44,167.82 581.99,166.50 C589.95,162.39 596.36,171.49 590.27,178.25 C588.15,180.60 583.87,180.46 581.19,177.96 ZM 654.17 177.69 C651.10,174.41 651.30,169.69 654.63,167.07 C656.08,165.93 658.05,165.00 659.00,165.00 C662.30,165.00 666.00,168.91 666.00,172.40 C666.00,178.96 658.52,182.31 654.17,177.69 ZM 710.45 177.55 C706.01,173.10 708.26,166.63 714.68,165.39 C717.25,164.90 718.36,165.27 720.43,167.34 C723.54,170.45 723.71,173.83 720.93,177.37 C718.22,180.81 713.79,180.89 710.45,177.55 Z" fill="#F7F4EE"></path>
</g>
</svg>