<svg fill="#8C8880" version="1.1" id="Layer_1" xmlns:x="ns_extend;" xmlns:i="ns_ai;" xmlns:graph="ns_graphs;" xmlns="http://www.w3.org/2000/svg" xmlns:xlink="http://www.w3.org/1999/xlink" x="0px" y="0px" viewBox="0 0 303.3 50" style="enable-background:new 0 0 303.3 50;" xml:space="preserve">
 
 
 <g>
  <path class="st0" d="M235.5,25.9c0,3.9-1.6,7.1-6.1,7.1c-4.5,0-6.1-3.1-6.1-7.1v-12h-3.1v12.4c0,4.2,1.7,9.7,9.2,9.7&#xA;&#x9;&#x9;c7.5,0,9.2-5.5,9.2-9.7V13.9h-3.1V25.9z M270.7,24.8c0-5-3.8-7.8-8.5-7.8h-5.6v15.6h5.6C266.9,32.7,270.7,29.9,270.7,24.8&#xA;&#x9;&#x9;L270.7,24.8z M273.9,24.8c0,7-5.1,10.9-11.4,10.9h-8.9V13.9h8.9C268.7,13.9,273.9,17.8,273.9,24.8L273.9,24.8z M123.3,26.4&#xA;&#x9;&#x9;l-4.1-9.4l-4.1,9.4H123.3z M120.8,13.9l9.9,21.9h-3.3l-2.7-6.2h-10.9l-2.7,6.3h-3.2l9.8-21.9H120.8z M139.2,17h7.4v18.8h3.1V17h7.4&#xA;&#x9;&#x9;v-3.1h-18V17z M188.3,17h7.4v18.8h3.1V17h7.4v-3.1h-18V17z M171.2,35.8h3.1V13.9h-3.1V35.8z M303.3,17v-3.1h-15.8v21.9h15.8v-3.1&#xA;&#x9;&#x9;h-12.7v-6.3h10.9v-3.1h-10.9V17H303.3z M84,13.9h-3.1v21.9h15.8v-3.1H84V13.9z M8.7,0H0v50h50v-8.7H8.7V0z M31.9,8.7&#xA;&#x9;&#x9;c5.8,0,5.8-8.7,0-8.7C26,0,26,8.7,31.9,8.7L31.9,8.7z M45.6,27.5c-5.8,0-5.8,8.7,0,8.7C51.5,36.2,51.5,27.5,45.6,27.5L45.6,27.5z&#xA;&#x9;&#x9; M18.1,8.7C24,8.7,24,0,18.1,0S12.3,8.7,18.1,8.7L18.1,8.7z M45.6,13.8c-2.5-0.1-4.5,1.9-4.5,4.4c0,2.5,2,4.4,4.5,4.4&#xA;&#x9;&#x9;C51.3,22.4,51.3,13.9,45.6,13.8L45.6,13.8z M50,4.4c0,5.8-8.7,5.8-8.7,0C41.3-1.5,50-1.5,50,4.4L50,4.4z M50,4.4">
  </path>
 </g>
</svg>