<svg width="83" height="73" viewBox="0 0 83 73" fill="none" xmlns="http://www.w3.org/2000/svg">
<path fill-rule="evenodd" clip-rule="evenodd" d="M10.9075 18.25C10.9075 8.17089 19.0464 0 29.0866 0C39.1265 0 47.2657 8.17089 47.2657 18.25V20.075C47.2657 22.0909 45.6377 23.725 43.6299 23.725C41.6218 23.725 39.994 22.0909 39.994 20.075V18.25C39.994 12.2025 35.1106 7.3 29.0866 7.3C23.0624 7.3 18.1791 12.2025 18.1791 18.25V29.2H50.9015C54.9175 29.2 58.1731 32.4684 58.1731 36.5V65.7C58.1731 69.7316 54.9175 73 50.9015 73H7.27164C3.25552 73 0 69.7316 0 65.7V36.5C0 32.4684 3.25552 29.2 7.27164 29.2H10.9075V18.25ZM7.27164 36.5V65.7H50.9015V36.5H7.27164ZM70.3661 15.6691C71.7859 14.2436 74.0879 14.2436 75.5078 15.6691C76.9276 17.0944 76.9276 19.4056 75.5078 20.8309L71.6515 24.7023C70.2315 26.1278 67.9295 26.1278 66.5095 24.7023C65.0898 23.277 65.0898 20.966 66.5095 19.5405L70.3661 15.6691ZM68.0155 32.4452C68.0155 30.4293 69.6434 28.7952 71.6513 28.7952H79.3642C81.3721 28.7952 83 30.4293 83 32.4452C83 34.4611 81.3721 36.0952 79.3642 36.0952H71.6513C69.6434 36.0952 68.0155 34.4611 68.0155 32.4452ZM66.5095 40.188C67.9295 38.7626 70.2315 38.7626 71.6515 40.188L75.5078 44.0595C76.9276 45.4848 76.9276 47.7958 75.5078 49.2213C74.0879 50.6467 71.7859 50.6467 70.3661 49.2213L66.5095 45.35C65.0898 43.9245 65.0898 41.6135 66.5095 40.188ZM29.0866 43.8C31.0945 43.8 32.7224 45.4341 32.7224 47.45V54.75C32.7224 56.7659 31.0945 58.4 29.0866 58.4C27.0785 58.4 25.4508 56.7659 25.4508 54.75V47.45C25.4508 45.4341 27.0785 43.8 29.0866 43.8Z" fill="#091F80"/>
</svg>
