<svg width="21" height="20" viewBox="0 0 21 20" fill="none" xmlns="http://www.w3.org/2000/svg">
<path d="M11 15V14C12.4 14 13.5 12.9 13.5 11.5C13.5 10.1 12.4 9 11 9H9C8.7 9 8.5 8.8 8.5 8.5C8.5 8.2 8.7 8 9 8H11C11.3 8 11.5 8.2 11.5 8.5H13.5C13.5 7.1 12.4 6 11 6V5H9V6C7.6 6 6.5 7.1 6.5 8.5C6.5 9.9 7.6 11 9 11H11C11.3 11 11.5 11.2 11.5 11.5C11.5 11.8 11.3 12 11 12H9C8.7 12 8.5 11.8 8.5 11.5H6.5C6.5 12.9 7.6 14 9 14V15H11Z" fill="#091F80"/>
<path d="M10 0C4.5 0 0 4.5 0 10C0 15.5 4.5 20 10 20C10.4 20 10.7 20 11.1 19.9L10.9 17.9C10.6 17.9 10.3 17.9 10 17.9C5.6 17.9 2 14.3 2 9.9C2 5.5 5.6 1.9 10 1.9C14.4 1.9 18 5.5 18 9.9C18 10.2 18 10.5 18 10.8L20 11C20 10.6 20.1 10.3 20.1 9.9C20 4.5 15.5 0 10 0Z" fill="#091F80"/>
<path d="M12.3999 17.5999L12.9999 19.4999C13.5999 19.2999 14.1999 19.0999 14.7999 18.6999L13.7999 16.8999C13.3999 17.2999 12.8999 17.4999 12.3999 17.5999Z" fill="#091F80"/>
<path d="M15.1001 16.2L16.4001 17.7C16.9001 17.3 17.4001 16.8 17.8001 16.3L16.3001 15C15.8001 15.5 15.5001 15.8 15.1001 16.2Z" fill="#091F80"/>
<path d="M17 13.7999L18.8 14.7999C19.1 14.1999 19.4 13.5999 19.6 12.9999L17.7 12.3999C17.5 12.8999 17.3 13.3999 17 13.7999Z" fill="#091F80"/>
</svg>
