<svg width="80" height="80" viewBox="0 0 80 80" fill="none" xmlns="http://www.w3.org/2000/svg">
<path d="M6.254 37.5H27.086C30.543 37.5 33.336 34.707 33.336 31.25V18.75C33.336 16.043 31.586 13.75 29.168 12.875V12.5C29.168 5.625 23.543 0 16.668 0C9.793 0 4.168 5.625 4.168 12.5V12.875C1.75 13.75 0 16.043 0 18.75V31.25C0 34.707 2.793 37.5 6.25 37.5H6.254ZM16.668 4.164C21.25 4.164 25 7.914 25 12.496H8.332C8.332 7.914 12.082 4.164 16.664 4.164H16.668ZM4.168 18.75C4.168 17.582 5.08597 16.668 6.25 16.668H27.082C28.25 16.668 29.164 17.586 29.164 18.75V31.25C29.164 32.418 28.246 33.332 27.082 33.332H6.25C5.082 33.332 4.168 32.414 4.168 31.25V18.75Z" fill="#091F80"/>
<path d="M50.004 4.16406H45.836C43.543 4.16406 41.668 6.03906 41.668 8.33206V12.5001C41.668 14.7931 43.543 16.6681 45.836 16.6681H50.004C52.297 16.6681 54.172 14.7931 54.172 12.5001V8.33206C54.172 6.03906 52.297 4.16406 50.004 4.16406ZM50.004 14.5821V12.5001H45.836V8.33206H50.004V14.5821Z" fill="#091F80"/>
<path d="M50.004 25H45.836C43.543 25 41.668 26.875 41.668 29.168V33.336C41.668 35.629 43.543 37.504 45.836 37.504H50.004C52.297 37.504 54.172 35.629 54.172 33.336V29.168C54.172 26.875 52.297 25 50.004 25ZM50.004 35.414V33.332H45.836V29.164H50.004V35.414Z" fill="#091F80"/>
<path d="M62.504 37.5001H66.672C68.965 37.5001 70.84 35.6251 70.84 33.3321V29.1641C70.84 26.8711 68.965 24.9961 66.672 24.9961H62.504C60.211 24.9961 58.336 26.8711 58.336 29.1641V33.3321C58.336 35.6251 60.211 37.5001 62.504 37.5001ZM62.504 29.1642H66.672V35.4142V33.3322H62.504V29.1642Z" fill="#091F80"/>
<path d="M60.418 16.664C61.586 16.664 62.5 15.746 62.5 14.582V6.24997C62.5 5.08197 61.582 4.16797 60.418 4.16797C59.25 4.16797 58.336 5.08594 58.336 6.24997V14.582C58.336 15.75 59.254 16.664 60.418 16.664Z" fill="#091F80"/>
<path d="M75.004 4.16406H70.836C68.543 4.16406 66.668 6.03906 66.668 8.33206V12.5001C66.668 14.7931 68.543 16.6681 70.836 16.6681H75.004C77.297 16.6681 79.172 14.7931 79.172 12.5001V8.33206C79.172 6.03906 77.297 4.16406 75.004 4.16406ZM75.004 14.5821V12.5001H70.836V8.33206H75.004V14.5821Z" fill="#091F80"/>
<path d="M20.836 54.1641V49.9961C20.836 47.7031 18.961 45.8281 16.668 45.8281H12.5C10.207 45.8281 8.33197 47.7031 8.33197 49.9961V54.1641C8.33197 56.4571 10.207 58.3321 12.5 58.3321H16.668C18.961 58.3321 20.836 56.4571 20.836 54.1641ZM12.504 50H16.672V56.25V54.168H12.504V50Z" fill="#091F80"/>
<path d="M43.754 58.3319C44.922 58.3319 45.836 57.414 45.836 56.2499V47.9179C45.836 46.7499 44.918 45.8359 43.754 45.8359C42.586 45.8359 41.672 46.7539 41.672 47.9179V56.2499C41.672 57.4179 42.59 58.3319 43.754 58.3319Z" fill="#091F80"/>
<path d="M33.336 45.832H29.168C26.875 45.832 25 47.707 25 50V54.168C25 56.461 26.875 58.336 29.168 58.336H33.336C35.629 58.336 37.504 56.461 37.504 54.168V50C37.504 47.707 35.629 45.832 33.336 45.832ZM33.336 56.25V54.168H29.168V50H33.336V56.25Z" fill="#091F80"/>
<path d="M52.086 45.832C50.918 45.832 50.004 46.75 50.004 47.914V56.246C50.004 57.414 50.9219 58.328 52.086 58.328C53.254 58.328 54.168 57.4101 54.168 56.246V47.914C54.168 46.746 53.25 45.832 52.086 45.832Z" fill="#091F80"/>
<path d="M70.836 54.1641V49.9961C70.836 47.7031 68.961 45.8281 66.668 45.8281H62.5C60.207 45.8281 58.332 47.7031 58.332 49.9961V54.1641C58.332 56.4571 60.207 58.3321 62.5 58.3321H66.668C68.961 58.3321 70.836 56.4571 70.836 54.1641ZM62.504 50H66.672V56.25V54.168H62.504V50Z" fill="#091F80"/>
<path d="M2.08603 58.3319C3.25403 58.3319 4.16803 57.414 4.16803 56.2499V47.9179C4.16803 46.7499 3.25006 45.8359 2.08603 45.8359C0.918028 45.8359 0.00402832 46.7539 0.00402832 47.9179V56.2499C0.00402832 57.4179 0.921998 58.3319 2.08603 58.3319Z" fill="#091F80"/>
<path d="M77.086 45.832C75.918 45.832 75.004 46.75 75.004 47.914V56.246C75.004 57.414 75.9219 58.328 77.086 58.328C78.254 58.328 79.168 57.4101 79.168 56.246V47.914C79.168 46.746 78.25 45.832 77.086 45.832Z" fill="#091F80"/>
<path d="M77.086 25C75.918 25 75.004 25.918 75.004 27.082V35.414C75.004 36.582 75.9219 37.496 77.086 37.496C78.254 37.496 79.168 36.578 79.168 35.414V27.082C79.168 25.914 78.25 25 77.086 25Z" fill="#091F80"/>
<path d="M8.336 66.6641H4.168C1.875 66.6641 0 68.5391 0 70.8321V75.0001C0 77.2931 1.875 79.1681 4.168 79.1681H8.336C10.629 79.1681 12.504 77.2931 12.504 75.0001V70.8321C12.504 68.5391 10.629 66.6641 8.336 66.6641ZM8.336 77.0821V75.0001H4.168V70.8321H8.336V77.0821Z" fill="#091F80"/>
<path d="M25.004 66.6641H20.836C18.543 66.6641 16.668 68.5391 16.668 70.8321V75.0001C16.668 77.2931 18.543 79.1681 20.836 79.1681H25.004C27.297 79.1681 29.172 77.2931 29.172 75.0001V70.8321C29.172 68.5391 27.297 66.6641 25.004 66.6641ZM25.004 77.0821V75.0001H20.836V70.8321H25.004V77.0821Z" fill="#091F80"/>
<path d="M35.418 66.6641C34.25 66.6641 33.336 67.582 33.336 68.7461V77.0781C33.336 78.2461 34.254 79.1601 35.418 79.1601C36.586 79.1601 37.5 78.2421 37.5 77.0781V68.7461C37.5 67.5781 36.582 66.6641 35.418 66.6641Z" fill="#091F80"/>
<path d="M50.004 66.6641H45.836C43.543 66.6641 41.668 68.5391 41.668 70.8321V75.0001C41.668 77.2931 43.543 79.1681 45.836 79.1681H50.004C52.297 79.1681 54.172 77.2931 54.172 75.0001V70.8321C54.172 68.5391 52.297 66.6641 50.004 66.6641ZM50.004 77.0821V75.0001H45.836V70.8321H50.004V77.0821Z" fill="#091F80"/>
<path d="M75.004 66.6641H70.836C68.543 66.6641 66.668 68.5391 66.668 70.8321V75.0001C66.668 77.2931 68.543 79.1681 70.836 79.1681H75.004C77.297 79.1681 79.172 77.2931 79.172 75.0001V70.8321C79.172 68.5391 77.297 66.6641 75.004 66.6641ZM75.004 77.0821V75.0001H70.836V70.8321H75.004V77.0821Z" fill="#091F80"/>
<path d="M60.418 66.6641C59.25 66.6641 58.336 67.582 58.336 68.7461V77.0781C58.336 78.2461 59.254 79.1601 60.418 79.1601C61.586 79.1601 62.5 78.2421 62.5 77.0781V68.7461C62.5 67.5781 61.582 66.6641 60.418 66.6641Z" fill="#091F80"/>
</svg>
