<svg width="111" height="66" viewBox="0 0 111 66" fill="none" xmlns="http://www.w3.org/2000/svg">
<path d="M55.012 31.8359C45.762 31.8359 38.239 39.3593 38.239 48.6089C37.9617 60.7649 51.68 69.2769 62.423 63.6639C64.8527 62.3944 63.0324 58.7537 60.5597 59.9373C52.4933 64.1443 42.1967 57.7381 42.4077 48.6133C42.9975 31.9293 67.0287 31.9333 67.6187 48.6133C67.6187 50.9141 67.0015 53.1406 65.8375 55.0508C65.2398 56.0352 65.5523 57.3164 66.5328 57.9141C67.5133 58.5118 68.7984 58.1993 69.3961 57.2188C76.1773 46.4298 67.7828 31.5938 55.0091 31.8398L55.012 31.8359Z" fill="#091F80"/>
<path d="M59.258 43.074L52.5861 49.742L49.5119 46.6678C47.5822 44.7498 44.6447 47.6795 46.5666 49.6131L51.1135 54.16C51.926 54.9725 53.2463 54.9725 54.0588 54.16L62.2033 46.0194C64.1174 44.0897 61.1955 41.1521 59.258 43.074Z" fill="#091F80"/>
<path d="M36 25.8672C35.9844 25.7813 36.0195 25.6875 36.0664 25.6367L38.793 22.9765C41.4297 20.5742 39.8946 15.8476 36.3477 15.4374L32.5782 14.8945C32.5704 14.8945 32.4102 14.7695 32.4024 14.7695L30.7032 11.3086C29.2227 8.09767 24.254 8.09767 22.793 11.3164C22.0118 12.4687 22.0508 14.0586 23.4102 14.7383C24.7735 15.4258 26.0743 14.4883 26.5274 13.1719C26.5469 13.1289 26.5938 13.0391 26.7422 13.0391C26.9063 13.0391 26.9649 13.1484 26.9766 13.168C28.1055 15.3125 29.086 18.8047 31.9883 19.0235L35.7461 19.5625C35.793 19.5704 35.918 19.5899 35.9688 19.7422C36.0117 19.879 35.9414 19.9493 35.8985 19.9922L33.1524 22.6758C30.9883 24.582 32.207 27.961 32.5547 30.3438C32.5625 30.3868 32.5781 30.4845 32.457 30.5743C32.3203 30.6759 32.207 30.6173 32.1758 30.5977L28.8516 28.8555C26.4141 27.2578 23.4688 29.5469 21.3204 30.5977C21.2813 30.6212 21.1876 30.6681 21.0587 30.5743C20.9259 30.4766 20.9415 30.3634 20.9493 30.336C21.2891 27.9688 22.5391 24.5079 20.3282 22.6602L17.5938 19.9922C17.5391 19.9414 17.4883 19.875 17.5235 19.7539C17.5665 19.6016 17.6875 19.5821 17.7266 19.5743C18.8555 19.3555 19.5938 18.2656 19.3789 17.1328C18.4531 13.8203 14.0234 16.0626 13.5312 18.5626C13.0625 20.1368 13.5039 21.832 14.6874 22.9766L17.4179 25.6407C17.4218 25.6447 17.4843 25.8556 17.4882 25.8595L16.8398 29.6407C16.1445 33.1055 20.1836 36.0391 23.2617 34.2852L26.6367 32.5118C27.7617 32.6446 30.4726 34.9337 32.3047 34.793C34.9375 34.8555 37.1992 32.2344 36.6641 29.625L36.0195 25.8633L36 25.8672Z" fill="#091F80"/>
<path d="M64.6528 16.9658C64.6372 16.8799 64.6723 16.7862 64.7192 16.7354L67.4458 14.0752C70.0825 11.6729 68.5474 6.94627 65.0005 6.53607L61.231 5.9931C61.2232 5.9931 61.063 5.8681 61.0552 5.8681L59.356 2.4072C57.8755 -0.803701 52.9068 -0.8037 51.4458 2.41501C50.6646 3.56731 50.7036 5.15721 52.063 5.83691C53.4263 6.52441 54.7271 5.58691 55.1802 4.27051C55.1998 4.22754 55.2466 4.1377 55.3951 4.1377C55.5591 4.1377 55.6177 4.24708 55.6294 4.26661C56.7583 6.41111 57.7388 9.90331 60.6411 10.1221L64.3989 10.6612C64.4458 10.669 64.5708 10.6885 64.6216 10.8409C64.6646 10.9776 64.5943 11.0479 64.5513 11.0909L61.8052 13.7745C59.6411 15.6807 60.8599 19.0597 61.2075 21.4425C61.2153 21.4854 61.231 21.5831 61.1099 21.6729C60.9732 21.7745 60.8599 21.7159 60.8286 21.6964L57.5044 19.9542C55.0669 18.3565 52.1216 20.6456 49.9732 21.6964C49.9342 21.7198 49.8404 21.7667 49.7115 21.6729C49.5787 21.5753 49.5943 21.462 49.6021 21.4347C49.942 19.0675 51.1919 15.6066 48.981 13.7589L46.2466 11.0909C46.1919 11.0401 46.1412 10.9737 46.1763 10.8526C46.2193 10.7002 46.3404 10.6807 46.3794 10.6729C47.5083 10.4541 48.2466 9.36428 48.0317 8.23148C47.106 4.91898 42.6762 7.16118 42.184 9.66118C41.7153 11.2354 42.1567 12.9307 43.3402 14.0753L46.0707 16.7394C46.0746 16.7433 46.1371 16.9542 46.1411 16.9581L45.4926 20.7393C44.7973 24.2041 48.8364 27.1377 51.9145 25.3838L55.2895 23.6104C56.4145 23.7432 59.1254 26.0323 60.9575 25.8916C63.5903 25.9541 65.852 23.333 65.3169 20.7236L64.6724 16.9619L64.6528 16.9658Z" fill="#091F80"/>
<path d="M92.6528 25.9658C92.6372 25.8799 92.6723 25.7862 92.7192 25.7354L95.4458 23.0752C98.0825 20.6729 96.5474 15.9463 93.0005 15.5361L89.231 14.9931C89.2232 14.9931 89.063 14.8681 89.0552 14.8681L87.356 11.4072C85.8755 8.1963 80.9068 8.1963 79.4458 11.415C78.6646 12.5673 78.7036 14.1572 80.063 14.8369C81.4263 15.5244 82.7271 14.5869 83.1802 13.2705C83.1998 13.2275 83.2466 13.1377 83.3951 13.1377C83.5591 13.1377 83.6177 13.2471 83.6294 13.2666C84.7583 15.4111 85.7388 18.9033 88.6411 19.1221L92.3989 19.6612C92.4458 19.669 92.5708 19.6885 92.6216 19.8409C92.6646 19.9776 92.5943 20.0479 92.5513 20.0909L89.8052 22.7745C87.6411 24.6807 88.8599 28.0597 89.2075 30.4425C89.2153 30.4854 89.231 30.5831 89.1099 30.6729C88.9732 30.7745 88.8599 30.7159 88.8286 30.6964L85.5044 28.9542C83.0669 27.3565 80.1216 29.6456 77.9732 30.6964C77.9342 30.7198 77.8404 30.7667 77.7115 30.6729C77.5787 30.5753 77.5943 30.462 77.6021 30.4347C77.942 28.0675 79.1919 24.6066 76.981 22.7589L74.2466 20.0909C74.1919 20.0401 74.1412 19.9737 74.1763 19.8526C74.2193 19.7002 74.3404 19.6807 74.3794 19.6729C75.5083 19.4541 76.2466 18.3643 76.0317 17.2315C75.106 13.919 70.6762 16.1612 70.184 18.6612C69.7153 20.2354 70.1567 21.9307 71.3402 23.0753L74.0707 25.7394C74.0746 25.7433 74.1371 25.9542 74.1411 25.9581L73.4926 29.7393C72.7973 33.2041 76.8364 36.1377 79.9145 34.3838L83.2895 32.6104C84.4145 32.7432 87.1254 35.0323 88.9575 34.8916C91.5903 34.9541 93.852 32.333 93.3169 29.7236L92.6724 25.9619L92.6528 25.9658Z" fill="#091F80"/>
<path d="M22.6528 52.9658C22.6372 52.8799 22.6723 52.7862 22.7192 52.7354L25.4458 50.0752C28.0825 47.6729 26.5474 42.9463 23.0005 42.5361L19.231 41.9931C19.2232 41.9931 19.063 41.8681 19.0552 41.8681L17.356 38.4072C15.8755 35.1963 10.9068 35.1963 9.44584 38.415C8.66459 39.5673 8.70365 41.1572 10.063 41.8369C11.4263 42.5244 12.7271 41.5869 13.1802 40.2705C13.1998 40.2275 13.2466 40.1377 13.3951 40.1377C13.5591 40.1377 13.6177 40.2471 13.6294 40.2666C14.7583 42.4111 15.7388 45.9033 18.6411 46.1221L22.3989 46.6612C22.4458 46.669 22.5708 46.6885 22.6216 46.8409C22.6646 46.9776 22.5943 47.0479 22.5513 47.0909L19.8052 49.7745C17.6411 51.6807 18.8599 55.0597 19.2075 57.4425C19.2153 57.4854 19.231 57.5831 19.1099 57.6729C18.9732 57.7745 18.8599 57.7159 18.8286 57.6964L15.5044 55.9542C13.0669 54.3565 10.1216 56.6456 7.97322 57.6964C7.93416 57.7198 7.84041 57.7667 7.7115 57.6729C7.57869 57.5753 7.59431 57.462 7.60212 57.4347C7.94196 55.0675 9.19192 51.6066 6.98103 49.7589L4.24663 47.0909C4.19194 47.0401 4.14116 46.9737 4.17632 46.8526C4.21929 46.7002 4.34038 46.6807 4.37944 46.6729C5.50834 46.4541 6.24664 45.3643 6.03174 44.2315C5.10596 40.919 0.676239 43.1612 0.184039 45.6612C-0.284711 47.2354 0.156694 48.9307 1.34024 50.0753L4.07074 52.7394C4.07464 52.7433 4.13715 52.9542 4.14105 52.9581L3.49261 56.7393C2.7973 60.2041 6.83641 63.1377 9.91451 61.3838L13.2895 59.6104C14.4145 59.7432 17.1254 62.0323 18.9575 61.8916C21.5903 61.9541 23.852 59.333 23.3169 56.7236L22.6724 52.9619L22.6528 52.9658Z" fill="#091F80"/>
<path d="M106.653 52.9658C106.637 52.8799 106.672 52.7862 106.719 52.7354L109.446 50.0752C112.083 47.6729 110.547 42.9463 107.001 42.5361L103.231 41.9931C103.223 41.9931 103.063 41.8681 103.055 41.8681L101.356 38.4072C99.8755 35.1963 94.9068 35.1963 93.4458 38.415C92.6646 39.5673 92.7036 41.1572 94.063 41.8369C95.4263 42.5244 96.7271 41.5869 97.1802 40.2705C97.1998 40.2275 97.2466 40.1377 97.3951 40.1377C97.5591 40.1377 97.6177 40.2471 97.6294 40.2666C98.7583 42.4111 99.7388 45.9033 102.641 46.1221L106.399 46.6612C106.446 46.669 106.571 46.6885 106.622 46.8409C106.665 46.9776 106.594 47.0479 106.551 47.0909L103.805 49.7745C101.641 51.6807 102.86 55.0597 103.208 57.4425C103.215 57.4854 103.231 57.5831 103.11 57.6729C102.973 57.7745 102.86 57.7159 102.829 57.6964L99.5044 55.9542C97.0669 54.3565 94.1216 56.6456 91.9732 57.6964C91.9342 57.7198 91.8404 57.7667 91.7115 57.6729C91.5787 57.5753 91.5943 57.462 91.6021 57.4347C91.942 55.0675 93.1919 51.6066 90.981 49.7589L88.2466 47.0909C88.1919 47.0401 88.1412 46.9737 88.1763 46.8526C88.2193 46.7002 88.3404 46.6807 88.3794 46.6729C89.5083 46.4541 90.2466 45.3643 90.0317 44.2315C89.106 40.919 84.6762 43.1612 84.184 45.6612C83.7153 47.2354 84.1567 48.9307 85.3402 50.0753L88.0707 52.7394C88.0746 52.7433 88.1371 52.9542 88.1411 52.9581L87.4926 56.7393C86.7973 60.2041 90.8364 63.1377 93.9145 61.3838L97.2895 59.6104C98.4145 59.7432 101.125 62.0323 102.958 61.8916C105.59 61.9541 107.852 59.333 107.317 56.7236L106.672 52.9619L106.653 52.9658Z" fill="#091F80"/>
</svg>
