<svg width="82" height="82" viewBox="0 0 82 82" fill="none" xmlns="http://www.w3.org/2000/svg">
<path d="M60.633 20.617C56.2033 8.398 44.36 0 31.25 0C14.016 0 0 14.016 0 31.25C0 44.359 8.3984 56.203 20.617 60.633C25.0467 72.852 36.89 81.25 50 81.25C67.234 81.25 81.25 67.234 81.25 50C81.25 36.891 72.8516 25.047 60.633 20.617ZM6.25 31.25C6.25 17.469 17.469 6.25 31.25 6.25C40.2969 6.25 48.594 11.25 52.969 18.891C52.8206 18.8754 52.6721 18.8676 52.5237 18.8598C52.3674 18.8441 52.2112 18.8363 52.0549 18.8285C51.3752 18.7816 50.6877 18.7504 50.0002 18.7504C32.7662 18.7504 18.7502 32.7664 18.7502 50.0004C18.7502 50.6879 18.7815 51.3754 18.8284 52.0551C18.8362 52.2113 18.8518 52.3676 18.8596 52.5238C18.8752 52.6723 18.8752 52.8207 18.8909 52.9691C11.2503 48.5941 6.25 40.297 6.25 31.25ZM50 75C40.9531 75 32.656 70 28.281 62.359C28.4294 62.3746 28.5779 62.3824 28.7263 62.3903C28.8826 62.4059 29.0388 62.4137 29.1951 62.4215C29.8748 62.4684 30.5623 62.4996 31.2498 62.4996C48.4838 62.4996 62.4998 48.4836 62.4998 31.2496C62.4998 30.5621 62.4685 29.8746 62.4216 29.1949C62.4138 29.0387 62.3982 28.8824 62.3904 28.7262C62.3748 28.5777 62.3748 28.4293 62.3591 28.2809C69.9997 32.6559 75.0001 40.9529 75.0001 49.9999C75.0001 63.7809 63.781 75 50 75Z" fill="#091F80"/>
</svg>
