<svg width="20" height="20" viewBox="0 0 20 20" fill="none" xmlns="http://www.w3.org/2000/svg">
<path d="M19.1667 12.5C18.9457 12.5 18.7337 12.5878 18.5774 12.7441C18.4211 12.9004 18.3333 13.1123 18.3333 13.3333V17.5C18.3333 17.721 18.2455 17.933 18.0893 18.0893C17.933 18.2455 17.721 18.3333 17.5 18.3333H2.5C2.27899 18.3333 2.06702 18.2455 1.91074 18.0893C1.75446 17.933 1.66667 17.721 1.66667 17.5V13.3333C1.66667 13.1123 1.57887 12.9004 1.42259 12.7441C1.26631 12.5878 1.05435 12.5 0.833333 12.5C0.61232 12.5 0.400358 12.5878 0.244078 12.7441C0.0877975 12.9004 0 13.1123 0 13.3333V17.5C0 18.163 0.263392 18.7989 0.732233 19.2678C1.20107 19.7366 1.83696 20 2.5 20H17.5C18.163 20 18.7989 19.7366 19.2678 19.2678C19.7366 18.7989 20 18.163 20 17.5V13.3333C20 13.1123 19.9122 12.9004 19.7559 12.7441C19.5996 12.5878 19.3877 12.5 19.1667 12.5Z" fill="#091F80"/>
<path d="M7.97507 12.2083L9.54174 13.875C9.60568 13.9436 9.68308 13.9984 9.7691 14.0358C9.85512 14.0732 9.94793 14.0926 10.0417 14.0926C10.1356 14.0926 10.2284 14.0732 10.3144 14.0358C10.4004 13.9984 10.4778 13.9436 10.5417 13.875L12.1084 12.2083L13.0917 11.1583C13.1821 11.0594 13.2419 10.9364 13.2637 10.8043C13.2855 10.6721 13.2684 10.5364 13.2146 10.4137C13.1608 10.291 13.0724 10.1866 12.9604 10.1132C12.8483 10.0397 12.7174 10.0004 12.5834 10H10.8334V0.833333C10.8334 0.61232 10.7456 0.400358 10.5893 0.244078C10.433 0.0877975 10.2211 0 10.0001 0C9.77906 0 9.5671 0.0877975 9.41082 0.244078C9.25454 0.400358 9.16674 0.61232 9.16674 0.833333V10H7.50007C7.36681 10.002 7.23696 10.0425 7.12616 10.1165C7.01535 10.1906 6.9283 10.2951 6.87548 10.4175C6.82266 10.5398 6.80632 10.6749 6.82843 10.8063C6.85053 10.9377 6.91013 11.06 7.00007 11.1583L7.97507 12.2083Z" fill="#091F80"/>
</svg>
