<svg width="20" height="25" viewBox="0 0 20 25" fill="none" xmlns="http://www.w3.org/2000/svg">
<g clip-path="url(#clip0_85_981)">
<path d="M10.0206 2.94283C9.84115 2.94232 9.80824 2.97551 9.75775 2.99463C9.70728 3.01464 9.6666 3.0322 9.62325 3.05355C9.53632 3.09623 9.44316 3.14803 9.33836 3.20806C9.12871 3.32812 8.87663 3.48154 8.62565 3.63677C8.37467 3.79195 8.12546 3.94918 7.93173 4.06924C7.8348 4.12927 7.75098 4.17996 7.69113 4.21553C7.67112 4.22664 7.654 4.23554 7.63622 4.24487C7.67268 4.23376 7.69402 4.22709 7.63695 4.24932C7.5787 4.27333 7.60071 4.26266 7.63622 4.24487C7.61621 4.25154 7.59731 4.25821 7.57396 4.26266C7.50638 4.28045 7.411 4.30179 7.29986 4.32713C7.07776 4.37805 6.79147 4.44186 6.50385 4.50789C6.21622 4.57392 5.92856 4.64239 5.69501 4.70442C5.57828 4.73555 5.47579 4.76423 5.38406 4.79513C5.33826 4.81069 5.29513 4.82537 5.24578 4.84715C5.19642 4.86939 5.1504 4.86939 5.02321 4.995C4.89604 5.1215 4.89604 5.16752 4.87403 5.21666C4.85179 5.26579 4.83667 5.3087 4.82111 5.3545C4.78976 5.4461 4.76042 5.54837 4.72862 5.66491C4.66526 5.89811 4.59501 6.18535 4.52742 6.47257C4.45961 6.75979 4.39403 7.04564 4.342 7.26752C4.31599 7.37846 4.29309 7.47361 4.27597 7.54127C4.2693 7.56483 4.26263 7.58418 4.25818 7.60352C4.27597 7.56817 4.28753 7.54594 4.26263 7.60419C4.23884 7.6611 4.24707 7.63976 4.25818 7.60352C4.24929 7.6213 4.2404 7.6382 4.22862 7.65821C4.1926 7.71779 4.14146 7.80139 4.08077 7.89792C3.9596 8.0909 3.80091 8.33926 3.64423 8.58931C3.48749 8.83938 3.33265 9.09045 3.21141 9.2995C3.15072 9.404 3.09847 9.49693 3.05512 9.58348C3.03288 9.62683 3.01488 9.6673 2.99553 9.71754C2.97552 9.76779 2.94284 9.80069 2.94218 9.98004C2.94164 10.1595 2.97464 10.1924 2.99398 10.2429C3.01399 10.2933 3.03155 10.334 3.05289 10.3774C3.09558 10.4643 3.14738 10.5574 3.20741 10.6622C3.32747 10.8719 3.48087 11.124 3.63607 11.375C3.79126 11.6259 3.94851 11.8751 4.06856 12.0689C4.12859 12.1658 4.17928 12.2496 4.21485 12.3095C4.22597 12.3295 4.23486 12.3466 4.2442 12.3642C4.23308 12.3279 4.22641 12.3066 4.24865 12.3635C4.27266 12.4218 4.26199 12.3998 4.2442 12.3642C4.25087 12.3842 4.25754 12.4031 4.26199 12.4266C4.27977 12.4942 4.30112 12.5896 4.32646 12.7007C4.37737 12.9228 4.44118 13.2091 4.50721 13.4968C4.57324 13.7844 4.64172 14.072 4.70375 14.3056C4.73487 14.4223 4.76377 14.5248 4.79446 14.6165C4.81002 14.6623 4.82491 14.7055 4.8467 14.7548C4.86893 14.8042 4.86893 14.8502 4.99455 14.9774C5.12105 15.1046 5.16707 15.1046 5.21621 15.1266C5.26534 15.1488 5.30825 15.1639 5.35405 15.1795C5.44565 15.2108 5.54792 15.2402 5.66448 15.272C5.89768 15.3353 6.18492 15.4056 6.47214 15.4732C6.75936 15.541 7.04519 15.6066 7.26709 15.6586C7.37803 15.6846 7.47318 15.7075 7.54079 15.7246C7.56436 15.7313 7.5837 15.738 7.60304 15.7424C7.56769 15.7246 7.54546 15.7131 7.60373 15.738C7.66065 15.7618 7.63931 15.7535 7.60304 15.7424C7.62083 15.7513 7.63773 15.7602 7.65774 15.772C7.71732 15.808 7.80091 15.8591 7.89747 15.9198C8.09045 16.041 8.33878 16.1997 8.58886 16.3564C8.83893 16.5131 9.08998 16.668 9.29903 16.7892C9.40352 16.8499 9.49645 16.9022 9.583 16.9455C9.62636 16.9677 9.66682 16.9858 9.71707 17.0051C9.76731 17.0251 9.80022 17.0578 9.97959 17.0585C10.159 17.059 10.1919 17.026 10.2424 17.0066C10.2929 16.9866 10.3336 16.9691 10.3769 16.9477C10.4638 16.905 10.557 16.8532 10.6618 16.7932C10.8714 16.6732 11.1235 16.5198 11.3745 16.3646C11.6254 16.2094 11.8747 16.0521 12.0684 15.9321C12.1654 15.8721 12.2492 15.8214 12.309 15.7856C12.329 15.7745 12.3461 15.7656 12.3637 15.7562C12.3275 15.7673 12.3061 15.774 12.363 15.7518C12.4213 15.7278 12.3993 15.7384 12.3637 15.7562C12.3837 15.7496 12.4026 15.7429 12.4262 15.7384C12.4938 15.7207 12.5891 15.6993 12.7003 15.674C12.9224 15.6231 13.2087 15.5592 13.4963 15.4932C13.7839 15.4272 14.0716 15.3587 14.3051 15.2967C14.4219 15.2656 14.5244 15.2369 14.6161 15.206C14.6619 15.1904 14.705 15.1755 14.7544 15.1539C14.8037 15.1317 14.8498 15.1317 14.977 15.0061C15.1041 14.8796 15.1041 14.8336 15.1261 14.7844C15.1484 14.7353 15.1635 14.6924 15.1791 14.6466C15.2104 14.555 15.2398 14.4527 15.2715 14.3362C15.3349 14.103 15.4052 13.8157 15.4728 13.5285C15.5406 13.2413 15.6061 12.9554 15.6582 12.7335C15.6842 12.6226 15.7071 12.5274 15.7242 12.4598C15.7309 12.4363 15.7375 12.4169 15.742 12.3976C15.7242 12.4329 15.7126 12.4552 15.7375 12.3969C15.7613 12.34 15.7553 12.3613 15.742 12.3976C15.7509 12.3798 15.7598 12.3629 15.7716 12.3429C15.8076 12.2833 15.8587 12.1997 15.9194 12.1032C16.0406 11.9102 16.1993 11.6618 16.356 11.4118C16.5127 11.1617 16.6676 10.9106 16.7888 10.7016C16.8495 10.5971 16.9017 10.5042 16.9449 10.4176C16.9671 10.3743 16.9851 10.3338 17.0045 10.2836C17.0245 10.2333 17.0572 10.2004 17.0578 10.021C17.0584 9.84162 17.0254 9.80872 17.006 9.75825C16.986 9.70778 16.9684 9.6671 16.9471 9.62374C16.9044 9.53681 16.8526 9.44366 16.7926 9.33888C16.6725 9.12923 16.5191 8.87717 16.3639 8.62619C16.2087 8.37521 16.0515 8.12596 15.9314 7.93223C15.8714 7.83529 15.8207 7.75148 15.7851 7.69165C15.774 7.67164 15.7651 7.65452 15.7558 7.63673C15.7669 7.6732 15.7736 7.69454 15.7513 7.63745C15.7273 7.5792 15.738 7.60121 15.7558 7.63673C15.7491 7.61673 15.7424 7.59783 15.738 7.57426C15.7202 7.50667 15.6989 7.4113 15.6735 7.30013C15.6226 7.07803 15.5588 6.79172 15.4928 6.5041C15.4267 6.21648 15.3583 5.92885 15.2962 5.6953C15.2651 5.57858 15.2364 5.47609 15.2055 5.38431C15.19 5.33851 15.1753 5.29538 15.1533 5.24603C15.131 5.19667 15.131 5.15065 15.0054 5.02346C14.8789 4.89629 14.8329 4.89629 14.7838 4.87428C14.7346 4.85204 14.6915 4.83693 14.6459 4.82136C14.5543 4.79002 14.4521 4.76067 14.3355 4.72888C14.1023 4.66551 13.8151 4.59526 13.5279 4.52767C13.2406 4.45986 12.9548 4.39428 12.7329 4.34225C12.622 4.31624 12.5268 4.29334 12.4592 4.27622C12.4358 4.26955 12.4163 4.26288 12.3969 4.25844C12.4323 4.27622 12.4543 4.28778 12.3961 4.26288C12.3392 4.23909 12.3605 4.24732 12.3969 4.25844C12.3791 4.24954 12.362 4.24065 12.3422 4.22864C12.2826 4.19263 12.199 4.14149 12.1025 4.0808C11.9095 3.95963 11.6612 3.80094 11.4111 3.64424C11.161 3.4875 10.91 3.33265 10.7009 3.2114C10.5964 3.1507 10.5035 3.09845 10.417 3.05532C10.3736 3.03309 10.3332 3.01508 10.2829 2.99574C10.2327 2.97573 10.1999 2.94349 10.0206 2.94283ZM10.0161 4.17811C10.0495 4.1959 10.0699 4.20701 10.1097 4.23013C10.2951 4.33774 10.5407 4.48877 10.7862 4.64261C11.0317 4.79646 11.2781 4.95334 11.4761 5.07766C11.575 5.13991 11.662 5.19371 11.733 5.23685C11.8042 5.27975 11.8144 5.29598 11.942 5.34934C12.0696 5.4027 12.0887 5.39781 12.1692 5.41826C12.2497 5.43827 12.3493 5.46295 12.4632 5.48963C12.6908 5.54299 12.9754 5.60791 13.2574 5.67438C13.5394 5.74086 13.8193 5.80867 14.0261 5.86491C14.0705 5.87603 14.0921 5.88492 14.1288 5.89604C14.1399 5.93272 14.1466 5.95429 14.1592 5.99898C14.2144 6.20618 14.2804 6.48638 14.3453 6.76878C14.4102 7.05117 14.4732 7.33611 14.5254 7.56403C14.5514 7.67809 14.5752 7.77769 14.595 7.85842C14.615 7.93912 14.6106 7.95802 14.6626 8.08601C14.715 8.21385 14.7313 8.22429 14.7737 8.29566C14.8162 8.36703 14.8698 8.45418 14.9314 8.55351C15.0545 8.75227 15.21 8.99954 15.3624 9.24597C15.5147 9.49239 15.6644 9.73884 15.7708 9.92484C15.7937 9.96486 15.8042 9.98531 15.8224 10.0189C15.8046 10.0522 15.7935 10.0727 15.7704 10.1125C15.6628 10.2979 15.5117 10.5434 15.3579 10.7889C15.2041 11.0345 15.0472 11.2808 14.9229 11.4788C14.8606 11.5778 14.8068 11.6647 14.7637 11.7358C14.7208 11.8069 14.7045 11.8172 14.6512 11.9448C14.5978 12.0724 14.6027 12.0915 14.5823 12.172C14.5622 12.2524 14.5376 12.352 14.5109 12.4659C14.4575 12.6935 14.3926 12.9781 14.3261 13.2601C14.2597 13.5421 14.1918 13.822 14.1356 14.0288C14.1245 14.0735 14.1156 14.0948 14.1045 14.1315C14.0678 14.1426 14.0462 14.1493 14.0015 14.162C13.7943 14.2171 13.5142 14.2834 13.2318 14.3481C12.9494 14.413 12.6644 14.4759 12.4365 14.5281C12.3224 14.5542 12.2228 14.5779 12.1421 14.598C12.0614 14.618 12.0425 14.6135 11.9145 14.6655C11.7867 14.718 11.7762 14.7342 11.7049 14.7767C11.6335 14.8192 11.5463 14.8728 11.447 14.9343C11.2482 15.0575 11.001 15.2129 10.7545 15.3653C10.5081 15.5178 10.2617 15.6674 10.0757 15.7738C10.0357 15.7967 10.0152 15.807 9.98163 15.8254C9.94829 15.8076 9.92783 15.7965 9.88803 15.7734C9.70262 15.6658 9.45712 15.5148 9.21159 15.3609C8.96608 15.2071 8.71969 15.0502 8.52169 14.9259C8.42276 14.8636 8.33583 14.8098 8.26473 14.7667C8.19358 14.7238 8.18336 14.7076 8.05574 14.6542C7.92813 14.6008 7.90901 14.6057 7.82855 14.5853C7.74807 14.5653 7.64847 14.5406 7.53459 14.5139C7.30697 14.4606 7.0224 14.3956 6.74038 14.3292C6.45838 14.2627 6.17852 14.1949 5.97173 14.1386C5.92705 14.1275 5.9057 14.1186 5.86902 14.1075C5.8579 14.0708 5.85123 14.0493 5.83856 14.0046C5.78342 13.7976 5.71739 13.5172 5.65247 13.2348C5.58756 12.9524 5.52464 12.6674 5.47239 12.4395C5.44638 12.3255 5.42259 12.2259 5.40258 12.1451C5.38257 12.0644 5.38702 12.0455 5.33499 11.9175C5.28253 11.7897 5.2663 11.7793 5.22383 11.7079C5.18137 11.6365 5.12779 11.5494 5.0662 11.45C4.94303 11.2513 4.78763 11.004 4.63523 10.7576C4.48271 10.5111 4.33313 10.2647 4.2267 10.0787C4.2038 10.0387 4.19358 10.0182 4.17512 9.98467C4.19291 9.95132 4.20403 9.93086 4.22715 9.89107C4.33475 9.70565 4.4858 9.46011 4.63965 9.2146C4.7935 8.96906 4.95037 8.7227 5.07467 8.52468C5.13692 8.42574 5.19073 8.33881 5.23386 8.26776C5.27677 8.19662 5.293 8.18639 5.34636 8.05877C5.39971 7.93116 5.39482 7.91226 5.41528 7.83158C5.43529 7.7511 5.45996 7.6515 5.48664 7.5376C5.54 7.30998 5.60492 7.02543 5.67139 6.74341C5.73787 6.46139 5.80568 6.1815 5.86193 5.97472C5.87304 5.93026 5.88194 5.90869 5.89305 5.87201C5.92974 5.86089 5.9513 5.85422 5.99599 5.84155C6.2032 5.78641 6.48335 5.72016 6.76575 5.65546C7.04814 5.59054 7.33312 5.52762 7.56103 5.47538C7.67508 5.44937 7.77468 5.42558 7.85541 5.40557C7.93611 5.38556 7.95501 5.39 8.083 5.33798C8.21084 5.28551 8.22129 5.26928 8.29265 5.22682C8.36402 5.18435 8.45117 5.13077 8.55053 5.06919C8.74929 4.94602 8.99656 4.79059 9.24298 4.63819C9.48941 4.4859 9.73583 4.33612 9.92183 4.22969C9.96185 4.20679 9.98255 4.19656 10.0161 4.17811ZM12.5417 7.48195C12.4645 7.48641 12.389 7.50603 12.3195 7.53967C12.2499 7.57332 12.1877 7.62034 12.1363 7.67804L9.26866 10.8963L8.02811 9.83757C7.90943 9.7363 7.75539 9.68632 7.59987 9.69862C7.44434 9.71092 7.30007 9.7845 7.19879 9.90316C7.14864 9.96192 7.11055 10.03 7.0867 10.1035C7.06285 10.177 7.05371 10.2544 7.0598 10.3314C7.06589 10.4085 7.0871 10.4835 7.1222 10.5523C7.1573 10.6212 7.20561 10.6824 7.26438 10.7325L8.94295 12.1652C9.05997 12.2651 9.21145 12.3151 9.36494 12.3047C9.51842 12.2942 9.6617 12.224 9.76407 12.1092L13.0148 8.46089C13.1186 8.34439 13.1718 8.19143 13.1628 8.03568C13.1538 7.87992 13.0833 7.73412 12.9668 7.63035C12.8503 7.52658 12.6974 7.47298 12.5417 7.48195Z" fill="#71CA76"/>
</g>
<defs>
<clipPath id="clip0_85_981">
<rect width="20" height="25" fill="white"/>
</clipPath>
</defs>
</svg>
