<svg width="80" height="80" viewBox="0 0 80 80" fill="none" xmlns="http://www.w3.org/2000/svg">
<path d="M37.819 66.7623H27.667C17.6638 66.7623 13.0154 62.1261 13.0154 52.1488V42.0232C13.0154 32.0831 17.6638 27.4468 27.667 27.4468H37.819C47.7851 27.4468 52.4706 32.0831 52.4706 42.0603V52.1859C52.4334 62.1261 47.7851 66.7623 37.819 66.7623ZM27.667 33.0102C20.7131 33.0102 18.5934 35.1244 18.5934 42.0603V52.1859C18.5934 59.1217 20.7131 61.2359 27.667 61.2359H37.819C44.7729 61.2359 46.8926 59.1217 46.8926 52.1859V42.0603C46.8926 35.1244 44.7729 33.0102 37.819 33.0102H27.667Z" fill="#091F80"/>
<path d="M52.2843 52.2976H49.644C48.1194 52.2976 46.855 51.0365 46.855 49.5158V42.0236C46.855 35.0877 44.7354 32.9736 37.7814 32.9736H30.3069C28.7822 32.9736 27.5179 31.7125 27.5179 30.1918V27.5955C27.5179 17.6553 32.1662 12.9819 42.1695 12.9819H52.3215C62.2875 12.9819 66.9731 17.6182 66.9731 27.5955V37.7211C66.9359 47.6613 62.2875 52.2976 52.2843 52.2976ZM33.0959 27.4471H37.8186C47.7847 27.4471 52.4702 32.0834 52.4702 42.0607V46.7711C59.3126 46.734 61.3951 44.6199 61.3951 37.7211V27.5955C61.3951 20.6596 59.2754 18.5455 52.3215 18.5455H42.1695C35.2527 18.5455 33.1331 20.6225 33.0959 27.4471Z" fill="#091F80"/>
<path d="M51.1326 79.744C50.1286 79.744 49.1989 79.1876 48.7155 78.3345C48.232 77.4444 48.232 76.4058 48.7527 75.5157L52.6573 69.0249C53.4382 67.6896 55.1488 67.2816 56.4875 68.0605C57.8262 68.8394 58.2353 70.5456 57.4544 71.8808L56.4503 73.5499C66.7139 71.139 74.4116 61.9406 74.4116 50.9619C74.4116 49.4412 75.6759 48.1802 77.2006 48.1802C78.7252 48.1802 79.9896 49.4412 79.9896 50.9619C79.9524 66.8366 67.0114 79.744 51.1326 79.744Z" fill="#091F80"/>
<path d="M2.78901 31.5267C1.26435 31.5267 0 30.2656 0 28.7449C0 12.9074 12.941 0 28.8198 0C29.8238 0 30.7535 0.556353 31.2369 1.40943C31.7203 2.29959 31.7203 3.33812 31.1997 4.22829L27.2951 10.7191C26.5142 12.0172 24.8036 12.4623 23.4649 11.6463C22.1633 10.8674 21.7171 9.16128 22.5352 7.82604L23.5392 6.15698C13.2385 8.56784 5.57802 17.7662 5.57802 28.7449C5.57802 30.2656 4.31367 31.5267 2.78901 31.5267Z" fill="#091F80"/>
</svg>
