<svg width="48" height="48" viewBox="0 0 48 48" fill="none" xmlns="http://www.w3.org/2000/svg">
<path d="M24.0003 0C10.7658 0 0 10.7658 0 24.0001C0 32.1601 4.09722 39.3771 10.3198 43.6972C11.417 44.4686 12.5656 45.1543 13.7827 45.72C16.8856 47.1771 20.3487 48 24 48C27.6513 48 31.1145 47.1771 34.2173 45.72C35.4344 45.1543 36.583 44.4686 37.6802 43.6972C43.9032 39.3771 48 32.1601 48 24.0001C48 10.7658 37.2347 0 24.0003 0ZM24.0003 44.5716C20.3831 44.5716 16.9889 43.6459 14.0403 42.0001C15.1889 37.5773 19.2175 34.2861 24.0003 34.2861C28.783 34.2861 32.8115 37.5775 33.9602 42.0001C31.0116 43.6459 27.6176 44.5716 24.0003 44.5716ZM36.9259 39.9944C35.023 34.6629 29.9485 30.8574 24.0003 30.8574C18.052 30.8574 12.9772 34.6631 11.0747 39.9944C6.41178 36.223 3.42861 30.4629 3.42861 24.0002C3.42861 12.6513 12.6513 3.42869 24.0003 3.42869C35.3492 3.42869 44.5719 12.6513 44.5719 24.0002C44.5719 30.4629 41.589 36.223 36.9259 39.9944ZM24.0003 12.0002C19.2688 12.0002 15.4287 15.8402 15.4287 20.5716C15.4287 25.3031 19.2688 29.1431 24.0003 29.1431C28.7318 29.1431 32.5718 25.3031 32.5718 20.5716C32.5718 15.8402 28.7318 12.0002 24.0003 12.0002ZM24.0003 25.7145C21.1717 25.7145 18.8574 23.4002 18.8574 20.5716C18.8574 17.7431 21.1717 15.4287 24.0003 15.4287C26.8288 15.4287 29.1432 17.7431 29.1432 20.5716C29.1432 23.4002 26.8288 25.7145 24.0003 25.7145Z" fill="#091F80"/>
</svg>
